<?xml version="1.0" standalone="no"?>
<!DOCTYPE svg PUBLIC "-//W3C//DTD SVG 20010904//EN"
 "http://www.w3.org/TR/2001/REC-SVG-20010904/DTD/svg10.dtd">
<svg version="1.0" xmlns="http://www.w3.org/2000/svg"
 width="460.000000pt" height="460.000000pt" viewBox="0 0 460.000000 460.000000"
 preserveAspectRatio="xMidYMid meet">
<metadata>
Created by potrace 1.11, written by Peter Selinger 2001-2013
</metadata>
<g transform="translate(0.000000,460.000000) scale(0.100000,-0.100000)"
fill="#000000" stroke="none">
<path d="M0 2300 l0 -2300 2300 0 2300 0 0 2300 0 2300 -557 -2 c-307 -1 -517
-5 -468 -8 50 -3 84 -7 76 -8 -10 -2 -11 -5 -2 -16 9 -11 7 -15 -9 -19 -18 -5
-30 -29 -12 -26 4 1 25 0 47 -1 l40 -3 -40 -7 c-40 -7 -40 -7 14 -9 59 -1 63
-9 9 -18 -54 -8 -45 -13 25 -13 37 0 66 -3 66 -7 -4 -23 3 -33 21 -33 13 0 20
-7 20 -20 0 -15 -7 -20 -27 -21 -22 -2 -19 -3 12 -9 39 -7 39 -7 8 -9 -18 0
-33 -5 -33 -11 0 -5 3 -9 8 -9 4 1 16 0 27 -1 15 -2 12 -4 -10 -10 -23 -6 -14
-8 38 -9 39 0 66 -5 62 -10 -3 -5 7 -12 22 -14 16 -2 -3 -5 -41 -6 -74 -1 -83
-6 -26 -14 50 -7 50 -9 0 -17 l-45 -7 55 -2 c37 -2 49 -5 35 -10 -10 -4 -34
-7 -52 -5 -18 1 -33 -2 -33 -7 0 -5 30 -10 68 -11 63 -2 61 -2 -28 -8 l-95 -6
85 -4 85 -3 -60 -7 c-46 -5 -52 -7 -25 -10 l35 -3 -35 -7 c-34 -7 -34 -7 13
-9 58 -1 62 -18 5 -24 -35 -3 -31 -4 22 -6 53 -3 59 -5 35 -11 l-30 -8 28 -1
c44 -2 31 -21 -15 -23 l-43 -1 45 -7 45 -7 -50 -3 c-45 -2 -47 -3 -20 -10 23
-6 13 -8 -45 -11 l-75 -3 70 -6 70 -6 -55 -9 -55 -10 80 -6 80 -5 -89 -2 c-94
-2 -112 -9 -33 -13 25 -2 44 -5 41 -8 -7 -7 -11 -8 -66 -11 -31 -2 -36 -4 -16
-7 37 -6 45 -33 10 -34 -21 -2 -18 -4 13 -9 34 -6 36 -8 13 -10 -44 -4 -46 -5
-54 -12 -4 -5 15 -9 42 -10 32 -1 17 -4 -41 -8 l-90 -6 85 -4 c51 -2 69 -5 46
-7 -29 -3 -36 -7 -25 -14 9 -6 -6 -9 -45 -9 -74 0 -69 -9 7 -13 98 -6 75 -17
-39 -19 l-109 -2 130 -6 c120 -5 123 -6 41 -8 -49 -1 -87 -4 -85 -6 2 -3 31
-8 64 -11 70 -8 83 -14 34 -16 l-34 -2 35 -7 c29 -6 31 -8 10 -10 l-25 -2 25
-9 c20 -7 18 -8 -15 -5 -22 2 -65 0 -95 -4 l-55 -7 48 -2 c44 -1 62 -13 35
-24 -7 -3 5 -6 27 -7 39 -2 39 -3 10 -10 -23 -6 -25 -8 -8 -9 12 0 25 -5 28
-11 4 -7 -55 -10 -169 -10 l-176 0 0 35 0 35 93 2 92 1 -105 7 c-58 4 -108 8
-112 9 -5 0 -8 17 -8 36 l0 34 88 4 87 3 -87 2 c-81 2 -88 4 -88 22 0 13 -7
20 -20 20 -21 0 -25 20 -21 98 1 27 -2 32 -21 32 -19 0 -20 2 -8 10 13 8 12
10 -2 10 -15 0 -18 10 -18 60 0 56 -2 60 -22 60 -19 0 -20 2 -8 10 10 6 11 10
3 10 -9 0 -13 17 -13 50 0 43 -3 50 -20 50 -17 0 -20 7 -21 45 -2 90 -2 90
-29 96 l-25 6 25 11 c24 10 24 11 3 11 -33 1 -33 48 0 54 l22 4 -22 2 c-32 2
-29 19 5 24 17 3 11 5 -18 6 -43 1 -46 3 -45 29 0 24 5 28 40 33 l40 6 -45 3
c-40 3 -37 4 25 10 39 4 -318 7 -792 8 l-863 2 0 -25 c0 -18 -5 -25 -20 -25
-13 0 -20 -7 -20 -20 0 -15 -7 -20 -25 -20 -23 0 -25 -4 -25 -45 0 -36 -3 -45
-18 -45 -13 0 -18 -9 -19 -37 -2 -81 -3 -83 -22 -83 -17 0 -20 -8 -23 -47 -3
-41 -6 -48 -25 -51 -20 -3 -23 -9 -23 -53 0 -41 -3 -49 -18 -49 -14 0 -19 -8
-19 -27 -1 -76 -3 -83 -23 -83 -14 0 -20 -7 -21 -25 -1 -14 -2 -35 -2 -47 -1
-13 -8 -26 -17 -30 -13 -6 -12 -7 3 -7 24 -1 21 -20 -5 -31 l-23 -9 24 0 c27
-1 23 -11 -5 -15 -15 -2 -18 -11 -17 -44 1 -35 -2 -42 -18 -42 -21 0 -22 -5
-23 -105 -1 -54 -3 -60 -23 -63 -21 -3 -23 -9 -23 -68 0 -54 -3 -64 -17 -65
-11 0 -13 -3 -5 -6 17 -7 15 -23 -3 -23 -12 0 -15 -17 -15 -95 0 -88 -1 -95
-20 -95 -11 0 -21 -4 -21 -10 -1 -5 -3 -14 -4 -20 -1 -5 -3 -48 -4 -95 -1 -78
-3 -85 -21 -85 -19 0 -20 -7 -20 -105 0 -93 -2 -105 -17 -105 -15 0 -16 -2 -3
-10 13 -8 12 -10 -2 -10 -26 0 -22 -18 5 -23 l22 -4 -22 -2 c-23 -1 -23 -2
-23 -165 0 -163 0 -165 -22 -169 l-23 -4 23 -2 c12 0 22 -5 22 -11 0 -5 -10
-10 -22 -11 -22 -1 -22 -1 2 -9 l25 -8 -25 -2 -25 -2 25 -8 25 -8 -25 -2 -25
-2 25 -7 25 -8 -25 -4 c-22 -3 -25 -9 -25 -43 -1 -45 -14 -54 -82 -55 -40 -1
-48 5 -44 32 0 4 -32 7 -73 7 -40 0 -89 3 -107 7 -33 7 -33 7 -9 14 l25 7 -25
2 -25 2 25 8 c19 6 11 8 -35 10 -33 1 -82 5 -110 10 l-50 7 45 3 45 2 -50 9
c-27 4 -77 12 -110 17 -58 9 -59 10 -16 11 52 1 49 13 -3 13 -51 0 -45 18 7
20 23 1 2 5 -48 8 l-90 6 77 2 c42 1 80 7 83 12 4 6 3 10 -2 9 -4 -1 -33 0
-63 2 l-55 3 70 6 c60 6 64 7 25 9 -39 3 -41 4 -20 11 18 6 5 9 -50 11 l-75 3
75 6 c59 5 65 7 28 8 -60 2 -63 20 -5 25 28 2 16 5 -38 7 -47 2 -64 5 -42 7
58 6 43 21 -30 29 -38 4 -61 9 -53 11 41 12 44 16 15 23 -19 5 22 9 105 11
121 3 125 3 43 6 -110 4 -124 22 -20 25 56 2 46 3 -48 8 l-120 6 95 3 95 3
-62 15 c-41 9 -63 19 -63 29 0 8 -10 15 -22 15 -13 1 13 5 57 9 71 7 90 15 85
36 -1 4 4 11 12 15 10 7 10 9 0 9 -7 0 -10 5 -7 10 4 6 -14 11 -47 12 l-53 1
55 7 c30 4 43 7 28 8 -16 1 -28 7 -28 12 0 6 12 11 28 11 l27 1 -30 8 c-24 6
-26 8 -7 9 32 2 27 21 -5 22 -25 2 -24 2 7 9 l35 7 -35 3 c-32 3 -30 4 15 10
l50 7 -70 3 -70 4 70 6 c51 5 59 7 28 8 -46 2 -58 18 -20 25 12 2 -9 6 -48 7
l-70 4 70 6 c60 6 64 7 25 9 -86 5 -101 19 -25 22 l70 2 -65 7 c-60 5 -62 6
-25 11 28 4 14 6 -42 7 -50 1 -83 -2 -83 -8 0 -5 -9 -10 -20 -10 -11 0 -20 7
-20 15 0 12 19 15 108 16 59 1 95 4 79 6 -47 7 -19 23 46 25 l62 2 -70 6 -70
6 70 3 70 3 -60 9 c-91 13 -88 17 15 20 86 2 90 3 40 9 -30 4 -43 7 -29 8 14
1 29 5 33 9 9 9 11 10 79 13 l52 3 -45 7 c-25 4 -37 8 -28 8 9 1 20 7 23 13 5
7 -9 10 -41 9 -27 -1 -78 -1 -114 1 l-65 2 65 7 65 7 -62 1 c-62 2 -89 20 -35
24 15 1 38 3 52 4 14 1 49 3 79 3 80 1 55 13 -36 16 -43 2 -80 5 -83 6 -3 2
38 6 90 9 95 6 95 6 -45 8 -84 1 -135 6 -126 11 7 5 10 14 7 20 -5 8 9 11 46
9 36 -1 42 -3 21 -5 -53 -7 -37 -23 22 -23 55 0 75 15 33 23 -17 3 -14 5 9 6
22 1 32 -3 30 -11 -1 -8 10 -14 26 -16 27 -3 38 12 15 21 -7 3 12 6 42 8 l55
2 -45 6 c-37 6 -40 8 -20 13 24 5 24 5 3 7 -13 0 -23 6 -23 11 0 6 -11 10 -25
10 -48 0 -25 19 28 23 l52 3 -55 2 c-40 2 -51 5 -40 12 10 6 11 10 3 10 -7 0
-13 5 -13 10 0 6 39 11 93 12 l92 2 -75 6 c-47 4 -62 8 -40 10 l35 3 -40 7
-40 7 40 3 c32 2 35 4 13 7 -16 2 -28 9 -28 14 0 5 12 10 28 11 15 1 -16 5
-68 8 l-95 6 108 2 c61 1 107 6 107 12 0 5 -6 7 -14 4 -8 -3 -17 -1 -21 5 -4
7 10 11 39 11 34 0 46 -4 46 -15 0 -9 9 -15 21 -15 18 0 19 3 9 14 -10 13 -3
16 47 19 45 2 37 4 -37 6 -68 2 -86 6 -65 11 l30 8 -30 3 c-16 2 31 6 105 9
l135 6 -111 2 -111 2 5 25 c4 22 9 25 40 23 21 -1 37 3 40 10 2 8 29 13 75 14
46 1 57 3 32 5 -22 3 -45 9 -52 15 -8 6 -44 7 -98 3 -60 -5 -85 -4 -85 4 0 6
15 12 33 12 l32 2 -35 6 -35 7 40 7 c22 3 49 4 60 1 11 -3 31 -1 45 5 21 8 16
10 -35 12 -37 2 -13 5 65 9 l125 6 -122 2 c-116 2 -123 3 -123 22 0 13 -7 20
-19 20 -11 0 -23 5 -26 10 -4 6 5 10 19 10 14 0 26 -4 26 -10 0 -5 9 -10 21
-10 11 0 17 5 14 10 -4 6 14 11 47 12 l53 1 -55 7 -55 7 53 1 c28 1 52 6 52
12 0 5 -26 7 -65 3 -44 -4 -65 -2 -65 5 0 7 28 12 73 15 l72 3 -72 2 c-40 1
-73 6 -73 11 0 5 38 12 85 16 47 4 84 9 83 11 -2 1 -27 4 -56 5 -28 1 -57 6
-64 10 -6 4 54 7 135 7 81 0 151 2 154 6 3 3 -6 6 -20 6 -19 0 -25 4 -21 15 4
11 -1 15 -17 16 l-24 1 25 8 c24 8 24 8 3 9 -24 1 -32 26 -10 34 9 4 9 6 0 6
-24 2 -13 20 15 24 16 2 5 5 -28 7 l-55 3 65 7 65 7 -62 1 c-74 2 -84 19 -15
25 38 3 33 4 -28 7 l-75 4 70 6 70 6 -65 4 -65 4 70 6 70 6 -66 2 c-57 2 -67
5 -72 22 -5 19 0 20 66 21 40 1 62 4 50 6 -13 2 -23 8 -23 13 0 5 6 7 14 4 8
-3 17 -1 21 5 4 7 -11 12 -42 13 l-48 1 45 7 45 7 -40 3 -40 3 45 7 c43 7 43
7 -25 10 l-70 4 63 3 c78 5 81 19 5 22 -110 4 -65 11 88 13 106 2 125 3 62 5
-78 3 -91 6 -86 19 4 10 -2 17 -16 21 -27 7 -28 23 -1 23 11 0 20 -4 20 -10 0
-5 18 -10 40 -10 22 0 40 4 40 10 0 5 39 11 88 13 l87 3 -90 2 c-62 2 -85 5
-75 12 10 6 11 10 3 10 -7 0 -13 5 -13 10 0 6 39 11 93 12 l92 2 -115 6 c-86
5 -98 7 -47 8 86 3 91 32 4 32 -44 0 -22 18 28 23 39 4 39 4 -10 7 l-50 3 50
7 c28 4 -165 8 -427 8 l-478 2 0 -2300z m773 2163 c-7 -2 -19 -2 -25 0 -7 3
-2 5 12 5 14 0 19 -2 13 -5z m-40 -70 c-7 -2 -19 -2 -25 0 -7 3 -2 5 12 5 14
0 19 -2 13 -5z m3180 -20 c-7 -2 -21 -2 -30 0 -10 3 -4 5 12 5 17 0 24 -2 18
-5z m7 -29 c0 -2 -14 -4 -31 -4 -16 0 -28 4 -25 9 5 8 56 3 56 -5z m7 -160
c-3 -3 -12 -4 -19 -1 -8 3 -5 6 6 6 11 1 17 -2 13 -5z m-3200 -80 c-3 -3 -12
-4 -19 -1 -8 3 -5 6 6 6 11 1 17 -2 13 -5z m3266 -41 c-7 -2 -21 -2 -30 0 -10
3 -4 5 12 5 17 0 24 -2 18 -5z m0 -20 c-7 -2 -19 -2 -25 0 -7 3 -2 5 12 5 14
0 19 -2 13 -5z m-3440 -10 c-7 -2 -19 -2 -25 0 -7 3 -2 5 12 5 14 0 19 -2 13
-5z m135 -20 c-32 -2 -84 -2 -116 0 -31 2 -5 3 58 3 63 0 89 -1 58 -3z m-305
-70 c-7 -2 -19 -2 -25 0 -7 3 -2 5 12 5 14 0 19 -2 13 -5z m0 -20 c-7 -2 -19
-2 -25 0 -7 3 -2 5 12 5 14 0 19 -2 13 -5z m-40 -30 c-7 -2 -21 -2 -30 0 -10
3 -4 5 12 5 17 0 24 -2 18 -5z m130 0 c-7 -2 -21 -2 -30 0 -10 3 -4 5 12 5 17
0 24 -2 18 -5z m1884 1 c-3 -3 -12 -4 -19 -1 -8 3 -5 6 6 6 11 1 17 -2 13 -5z
m1636 -1 c-7 -2 -19 -2 -25 0 -7 3 -2 5 12 5 14 0 19 -2 13 -5z m-3650 -20
c-7 -2 -21 -2 -30 0 -10 3 -4 5 12 5 17 0 24 -2 18 -5z m3650 0 c-7 -2 -19 -2
-25 0 -7 3 -2 5 12 5 14 0 19 -2 13 -5z m-1290 -70 c-7 -2 -21 -2 -30 0 -10 3
-4 5 12 5 17 0 24 -2 18 -5z m-2420 -30 c-13 -2 -33 -2 -45 0 -13 2 -3 4 22 4
25 0 35 -2 23 -4z m1990 0 c-7 -2 -19 -2 -25 0 -7 3 -2 5 12 5 14 0 19 -2 13
-5z m84 1 c-3 -3 -12 -4 -19 -1 -8 3 -5 6 6 6 11 1 17 -2 13 -5z m306 -1 c-7
-2 -21 -2 -30 0 -10 3 -4 5 12 5 17 0 24 -2 18 -5z m164 1 c-3 -3 -12 -4 -19
-1 -8 3 -5 6 6 6 11 1 17 -2 13 -5z m-2534 -21 c-7 -2 -19 -2 -25 0 -7 3 -2 5
12 5 14 0 19 -2 13 -5z m1987 -3 c0 -5 -6 -10 -14 -10 -8 0 -18 5 -21 10 -3 6
3 10 14 10 12 0 21 -4 21 -10z m80 0 c0 -5 12 -11 28 -11 17 -1 21 -3 9 -6
-10 -3 -26 -1 -35 3 -9 4 -20 6 -24 6 -5 -1 -8 3 -8 8 0 6 7 10 15 10 8 0 15
-4 15 -10z m303 3 c-7 -2 -21 -2 -30 0 -10 3 -4 5 12 5 17 0 24 -2 18 -5z
m164 1 c-3 -3 -12 -4 -19 -1 -8 3 -5 6 6 6 11 1 17 -2 13 -5z m-2484 -21 c-7
-2 -21 -2 -30 0 -10 3 -4 5 12 5 17 0 24 -2 18 -5z m260 0 c-7 -2 -21 -2 -30
0 -10 3 -4 5 12 5 17 0 24 -2 18 -5z m1250 0 c-7 -2 -21 -2 -30 0 -10 3 -4 5
12 5 17 0 24 -2 18 -5z m2050 0 c-7 -2 -19 -2 -25 0 -7 3 -2 5 12 5 14 0 19
-2 13 -5z m-3553 -23 c0 -6 -18 -10 -40 -10 -22 0 -40 4 -40 8 0 5 18 9 40 10
22 1 40 -3 40 -8z m1540 2 c0 -4 -18 -9 -40 -10 -23 -2 -40 2 -40 8 0 5 18 10
40 10 22 0 40 -4 40 -8z m520 -2 c0 -5 -11 -10 -25 -10 -14 0 -25 5 -25 10 0
6 11 10 25 10 14 0 25 -4 25 -10z m1420 0 c0 -5 -11 -10 -25 -10 -14 0 -25 5
-25 10 0 6 11 10 25 10 14 0 25 -4 25 -10z m80 0 c0 -5 -9 -10 -20 -10 -11 0
-20 5 -20 10 0 6 9 10 20 10 11 0 20 -4 20 -10z m-3567 -27 c-7 -2 -21 -2 -30
0 -10 3 -4 5 12 5 17 0 24 -2 18 -5z m84 1 c-3 -3 -12 -4 -19 -1 -8 3 -5 6 6
6 11 1 17 -2 13 -5z m1416 -1 c-7 -2 -21 -2 -30 0 -10 3 -4 5 12 5 17 0 24 -2
18 -5z m174 -13 c1 -13 -4 -20 -17 -20 -13 0 -18 7 -17 20 1 11 8 20 17 20 9
0 16 -9 17 -20z m296 13 c-13 -2 -35 -2 -50 0 -16 2 -5 4 22 4 28 0 40 -2 28
-4z m350 0 c-7 -2 -21 -2 -30 0 -10 3 -4 5 12 5 17 0 24 -2 18 -5z m1240 0
c-7 -2 -19 -2 -25 0 -7 3 -2 5 12 5 14 0 19 -2 13 -5z m-1573 -23 c11 -7 -1
-9 -40 -9 -42 1 -49 3 -30 9 35 11 53 11 70 0z m-487 -7 c-7 -2 -19 -2 -25 0
-7 3 -2 5 12 5 14 0 19 -2 13 -5z m820 0 c-7 -2 -21 -2 -30 0 -10 3 -4 5 12 5
17 0 24 -2 18 -5z m1234 1 c-3 -3 -12 -4 -19 -1 -8 3 -5 6 6 6 11 1 17 -2 13
-5z m-2044 -21 c-7 -2 -21 -2 -30 0 -10 3 -4 5 12 5 17 0 24 -2 18 -5z m80 0
c-7 -2 -21 -2 -30 0 -10 3 -4 5 12 5 17 0 24 -2 18 -5z m80 0 c-7 -2 -19 -2
-25 0 -7 3 -2 5 12 5 14 0 19 -2 13 -5z m324 0 c-20 -2 -52 -2 -70 0 -17 2 0
4 38 4 39 0 53 -2 32 -4z m326 0 c-7 -2 -21 -2 -30 0 -10 3 -4 5 12 5 17 0 24
-2 18 -5z m80 0 c-7 -2 -21 -2 -30 0 -10 3 -4 5 12 5 17 0 24 -2 18 -5z m910
0 c-40 -2 -106 -2 -145 0 -40 1 -8 3 72 3 80 0 112 -2 73 -3z m154 1 c-3 -3
-12 -4 -19 -1 -8 3 -5 6 6 6 11 1 17 -2 13 -5z m-1964 -21 c-7 -2 -21 -2 -30
0 -10 3 -4 5 12 5 17 0 24 -2 18 -5z m90 0 c-7 -2 -21 -2 -30 0 -10 3 -4 5 12
5 17 0 24 -2 18 -5z m452 -3 l-30 -8 28 -1 c32 -1 37 -20 5 -22 -15 -1 -11 -4
12 -9 21 -4 -23 -7 -110 -7 -80 0 -125 3 -100 6 l45 6 -45 10 -45 9 70 6 70 6
-50 5 c-30 3 -3 6 65 6 71 0 104 -2 85 -7z m388 3 c-29 -2 -77 -2 -105 0 -29
2 -6 3 52 3 58 0 81 -1 53 -3z m442 -3 c-16 -7 -12 -9 20 -10 l40 -2 -35 -10
c-19 -6 -29 -13 -21 -16 11 -4 11 -6 0 -13 -10 -6 -11 -9 -1 -9 6 0 12 -4 12
-10 0 -5 -11 -10 -25 -10 -16 0 -25 6 -25 15 0 8 -6 15 -12 16 -10 0 -10 2 0
6 6 2 12 16 12 29 0 20 5 24 28 23 24 0 25 -1 7 -9z m528 3 c-45 -2 -122 -2
-170 0 -48 1 -11 3 82 3 94 0 133 -2 88 -3z m150 0 c-13 -2 -33 -2 -45 0 -13
2 -3 4 22 4 25 0 35 -2 23 -4z m-3628 -23 c-3 -5 -33 -10 -66 -10 -33 0 -59 4
-59 10 0 6 29 10 66 10 41 0 63 -4 59 -10z m1540 0 c-3 -5 -13 -10 -21 -10 -8
0 -14 5 -14 10 0 6 9 10 21 10 11 0 17 -4 14 -10z m135 0 c0 -5 -11 -10 -25
-10 -14 0 -25 5 -25 10 0 6 11 10 25 10 14 0 25 -4 25 -10z m43 3 c-7 -2 -19
-2 -25 0 -7 3 -2 5 12 5 14 0 19 -2 13 -5z m847 -3 c0 -5 -19 -11 -42 -12
l-43 -1 45 -7 c44 -7 43 -7 -19 -8 -75 -2 -76 -14 -2 -15 73 0 63 -17 -11 -19
l-63 -2 70 -6 70 -6 -85 -4 -85 -4 85 -6 85 -6 -107 -2 c-90 -2 -108 0 -108
13 0 8 6 15 13 15 8 0 9 3 1 8 -6 4 -11 15 -11 25 0 13 9 17 44 17 24 0 42 4
39 8 -3 5 -23 8 -46 8 -22 -1 -40 2 -40 6 0 5 47 8 105 8 63 0 105 -4 105 -10z
m795 0 c-3 -5 -28 -10 -56 -10 -27 0 -49 5 -49 10 0 6 25 10 56 10 34 0 53 -4
49 -10z m291 1 c-8 -12 -264 -13 -271 -1 -4 6 46 10 135 10 78 0 139 -4 136
-9z m204 1 c0 -4 -18 -9 -40 -10 -23 -2 -40 2 -40 8 0 5 18 10 40 10 22 0 40
-4 40 -8z m-2182 -29 c-32 -2 -84 -2 -115 0 -32 2 -6 3 57 3 63 0 89 -1 58 -3z
m1609 1 c-3 -3 -12 -4 -19 -1 -8 3 -5 6 6 6 11 1 17 -2 13 -5z m231 -1 c-32
-2 -84 -2 -115 0 -32 2 -6 3 57 3 63 0 89 -1 58 -3z m209 1 c-3 -3 -12 -4 -19
-1 -8 3 -5 6 6 6 11 1 17 -2 13 -5z m166 -1 c-13 -2 -35 -2 -50 0 -16 2 -5 4
22 4 28 0 40 -2 28 -4z m-3853 -23 c0 -5 -9 -10 -20 -10 -11 0 -20 5 -20 10 0
6 9 10 20 10 11 0 20 -4 20 -10z m1680 -1 c0 -5 -40 -9 -90 -9 -53 0 -90 4
-90 10 0 6 37 9 90 9 50 0 90 -5 90 -10z m220 1 c0 -5 -11 -10 -25 -10 -14 0
-25 5 -25 10 0 6 11 10 25 10 14 0 25 -4 25 -10z m204 -1 c-8 -13 -164 -11
-164 2 0 6 31 9 85 8 46 -1 82 -6 79 -10z m1426 1 c0 -6 -42 -10 -105 -10 -63
0 -105 4 -105 10 0 6 42 10 105 10 63 0 105 -4 105 -10z m340 0 c0 -5 -18 -10
-40 -10 -22 0 -40 5 -40 10 0 6 18 10 40 10 22 0 40 -4 40 -10z m-3997 -27
c-7 -2 -21 -2 -30 0 -10 3 -4 5 12 5 17 0 24 -2 18 -5z m139 0 c-6 -2 -10 -9
-6 -14 3 -5 -7 -8 -23 -8 -21 1 -23 3 -8 7 l20 5 -20 8 c-16 6 -12 8 15 8 19
-1 29 -3 22 -6z m1195 -8 c0 -9 -10 -15 -24 -15 -14 0 -23 6 -23 15 0 9 9 15
23 15 14 0 24 -6 24 -15z m470 0 c0 -13 -18 -15 -106 -13 l-106 2 90 6 90 6
-90 5 -90 5 106 2 c88 2 106 0 106 -13z m413 6 l-25 -8 25 -5 c14 -3 -35 -6
-107 -7 -112 -1 -133 1 -133 14 0 13 21 15 133 14 75 -1 121 -4 107 -8z m781
2 c-11 -5 -11 -7 0 -14 10 -6 8 -9 -8 -9 -14 0 -23 6 -23 15 0 9 9 15 23 14
12 0 16 -3 8 -6z m416 0 c-20 -2 -52 -2 -70 0 -17 2 0 4 38 4 39 0 53 -2 32
-4z m176 0 c-13 -2 -33 -2 -45 0 -13 2 -3 4 22 4 25 0 35 -2 23 -4z m400 0
c-7 -2 -19 -2 -25 0 -7 3 -2 5 12 5 14 0 19 -2 13 -5z m-3990 -20 c-7 -2 -21
-2 -30 0 -10 3 -4 5 12 5 17 0 24 -2 18 -5z m3425 0 c-16 -2 -40 -2 -55 0 -16
2 -3 4 27 4 30 0 43 -2 28 -4z m175 0 c-13 -2 -35 -2 -50 0 -16 2 -5 4 22 4
28 0 40 -2 28 -4z m390 0 c-7 -2 -19 -2 -25 0 -7 3 -2 5 12 5 14 0 19 -2 13
-5z m-4040 -20 c-7 -2 -19 -2 -25 0 -7 3 -2 5 12 5 14 0 19 -2 13 -5z m1400 0
c-7 -2 -21 -2 -30 0 -10 3 -4 5 12 5 17 0 24 -2 18 -5z m441 -8 c-19 -14 -19
-14 1 -16 11 -2 -11 -5 -50 -9 l-70 -6 68 -2 c37 -1 67 -6 67 -12 0 -5 -8 -11
-17 -11 -17 -1 -17 -2 0 -6 9 -2 17 -11 17 -19 0 -8 -8 -15 -17 -15 -16 -1
-16 -2 -2 -6 10 -2 19 -13 22 -23 4 -14 -1 -20 -22 -23 -17 -3 -11 -5 17 -6
23 0 42 -6 42 -12 0 -5 -4 -8 -8 -5 -4 2 -14 1 -22 -5 -12 -7 -9 -9 10 -10 17
-1 19 -3 8 -6 -10 -2 -19 -9 -19 -14 -5 -33 -3 -44 9 -45 29 -3 24 -7 -18 -14
l-45 -7 47 -1 c26 -1 50 3 53 8 4 6 14 10 23 8 10 -1 23 1 31 6 11 7 13 4 9
-12 -4 -12 -2 -22 3 -22 4 0 10 57 11 128 l3 127 43 9 c48 11 54 23 15 29 -16
2 44 5 131 6 88 0 157 -1 155 -4 -3 -2 -22 -5 -43 -7 -58 -4 -54 -18 6 -19 49
-2 50 -2 18 -9 l-35 -7 33 -2 c17 0 32 -5 32 -11 0 -5 -15 -11 -32 -11 -32 -2
-31 -2 6 -8 44 -7 61 -30 24 -32 l-23 -2 23 -4 c15 -3 22 -11 22 -29 0 -19 5
-24 26 -24 14 0 23 -4 19 -10 -4 -6 -10 -8 -15 -5 -5 3 -11 1 -14 -4 -3 -5 3
-11 14 -14 16 -4 20 -14 20 -46 0 -43 4 -46 58 -41 12 1 22 -3 22 -8 0 -5 19
-17 43 -28 23 -10 48 -27 55 -36 9 -13 27 -18 62 -18 43 0 49 3 52 23 3 19 10
22 51 25 28 2 47 -1 47 -7 0 -6 -10 -12 -22 -12 l-23 -2 23 -4 c12 -2 22 -8
22 -12 0 -5 -11 -6 -25 -3 -18 3 -25 0 -25 -12 0 -12 -11 -16 -42 -18 l-43 -1
43 -4 c23 -2 42 -8 42 -12 0 -5 -11 -6 -25 -3 -15 2 -25 0 -25 -7 0 -6 -8 -12
-17 -12 -17 -1 -17 -2 0 -6 20 -5 23 -23 5 -24 -7 0 -4 -4 7 -9 16 -7 10 -9
-25 -11 l-45 -2 50 -7 c28 -5 67 -6 88 -3 35 5 37 4 37 -21 0 -20 5 -26 21
-26 11 0 17 -4 14 -10 -3 -5 4 -11 17 -11 17 -1 18 -3 6 -6 -24 -6 -23 -23 2
-23 11 0 20 7 20 15 0 12 16 15 87 15 80 0 110 -7 50 -12 -14 -1 -23 -6 -21
-10 3 -5 10 -5 16 -2 7 4 8 2 4 -4 -4 -7 -19 -12 -33 -12 -21 0 -24 2 -13 15
11 13 8 15 -19 15 -21 0 -31 -5 -31 -15 0 -13 -20 -15 -126 -12 -69 1 -118 3
-110 5 11 2 16 15 16 42 0 42 -13 50 -60 41 -25 -5 -24 -5 5 -12 l30 -7 -27
-1 c-16 0 -28 -5 -28 -11 0 -5 -10 -11 -22 -11 l-23 -2 23 -4 c39 -8 26 -33
-17 -33 -35 0 -38 -2 -38 -26 0 -16 2 -21 7 -14 5 9 9 9 14 1 4 -7 44 -11 99
-12 61 -1 84 -4 67 -9 -14 -4 -19 -8 -12 -9 7 -1 10 -6 6 -12 -4 -8 10 -10 47
-8 80 3 468 -3 437 -8 -34 -5 -37 -20 -5 -26 12 -2 -8 -5 -45 -6 -56 -1 -66 2
-62 14 5 13 -10 15 -107 15 -112 0 -147 -14 -41 -16 32 -1 68 -2 82 -4 l25 -2
-25 -8 c-23 -7 -23 -8 -3 -9 12 -1 25 4 29 10 4 8 9 8 17 0 6 -6 25 -12 42
-12 20 -1 24 -3 10 -6 -11 -3 -24 -9 -30 -14 -13 -13 -42 -11 -49 4 -3 8 -12
4 -28 -14 -27 -30 -53 -32 -53 -4 0 13 -8 21 -22 23 -16 2 -23 -2 -23 -12 0
-9 8 -16 18 -17 32 -1 -20 -17 -63 -19 -39 -2 -39 -3 -10 -10 23 -6 12 -8 -43
-9 -41 0 -71 -5 -68 -10 11 -18 -6 -41 -30 -41 -13 0 -24 5 -24 10 0 6 -7 10
-15 10 -11 0 -15 -12 -15 -44 0 -26 -5 -46 -12 -49 -7 -3 11 -6 40 -6 65 -1
69 -20 5 -23 l-48 -1 45 -4 c46 -4 69 -21 47 -35 -7 -4 2 -8 21 -8 17 0 32 -4
32 -8 0 -5 -18 -7 -39 -5 -22 1 -43 -2 -46 -7 -4 -6 -3 -10 2 -9 4 1 26 0 48
-2 33 -2 29 -4 -25 -9 l-65 -7 63 -1 c48 -2 62 -5 62 -17 0 -11 11 -15 43 -14
23 1 32 4 20 6 -46 9 -21 23 40 24 44 0 56 3 42 9 -11 5 -15 9 -9 9 26 2 24
61 -2 61 -8 0 -14 9 -14 20 0 15 7 20 26 20 19 0 25 -4 20 -15 -7 -19 0 -21
79 -31 45 -5 55 -9 40 -15 l-20 -8 20 -1 c29 -3 146 -6 258 -8 l97 -2 0 -35
c0 -29 4 -35 23 -36 21 -1 21 -1 -3 -9 l-25 -8 28 -1 c19 -1 27 -6 27 -20 0
-10 9 -21 20 -24 11 -3 20 -13 20 -24 0 -16 11 -18 125 -19 123 0 130 1 126
34 -2 15 135 17 144 2 3 -5 0 -10 -7 -10 -9 0 -9 -3 2 -10 10 -6 11 -10 3 -10
-20 0 -15 -20 5 -21 14 0 14 -2 -3 -9 -18 -8 -18 -9 5 -10 23 -1 23 -2 5 -10
l-20 -9 20 -1 c14 -2 11 -5 -10 -10 l-30 -8 29 -1 c42 -2 28 -9 -35 -20 -45
-7 -48 -9 -18 -10 33 -1 36 -4 37 -31 1 -27 -3 -30 -31 -31 l-32 -2 35 -7 c23
-5 -20 -9 -120 -11 l-155 -3 135 -3 c74 -2 139 -8 145 -14 7 -7 -22 -10 -90
-9 -55 1 -109 1 -120 0 l-20 -1 20 -9 c17 -7 17 -9 3 -9 -10 -1 -18 -6 -18
-12 0 -6 10 -9 23 -7 12 2 21 9 19 16 -1 8 14 12 50 10 l53 -1 -45 -7 c-44 -7
-44 -7 -10 -10 24 -2 28 -4 14 -7 -12 -2 -24 -13 -27 -24 -7 -28 -73 -27 -82
1 -3 11 -15 20 -26 20 -18 0 -23 -10 -20 -37 1 -7 -7 -13 -19 -13 -15 0 -20 6
-20 25 0 31 -35 35 -45 5 -6 -20 -35 -28 -35 -10 0 6 -21 11 -47 11 -27 1 -38
4 -25 6 15 3 22 11 22 29 0 22 -4 24 -42 23 -37 -1 -39 -2 -18 -9 24 -8 24 -8
3 -9 -13 -1 -23 -5 -23 -11 0 -5 -11 -10 -25 -10 -20 0 -25 5 -25 25 0 14 -3
24 -7 24 -5 -1 -24 0 -43 1 -34 3 -34 3 10 10 l45 7 -45 3 -45 3 45 7 c43 7
42 7 -22 8 -51 2 -68 6 -68 16 0 16 -30 26 -86 26 -34 0 -43 4 -47 21 -5 20
-10 20 -154 15 -137 -5 -144 -5 -98 8 37 10 44 14 25 16 l-25 3 25 5 25 5 -25
8 c-21 6 -18 7 18 8 35 1 42 4 42 21 0 14 -7 21 -22 22 -13 0 0 4 27 8 l50 7
-47 1 c-49 2 -69 22 -22 22 14 0 23 4 19 10 -3 6 4 11 17 11 l23 2 -22 4 c-13
2 -23 9 -23 15 0 7 -20 8 -62 3 -35 -4 -94 -11 -133 -15 l-70 -7 85 -3 85 -3
-60 -7 c-43 -5 -50 -7 -23 -8 20 -1 44 -5 54 -9 16 -6 16 -7 -2 -14 -16 -6
-14 -8 11 -9 30 -2 30 -2 5 -10 -14 -4 -45 -9 -70 -11 l-45 -2 50 -7 50 -7
-45 -2 c-30 -2 -38 -5 -25 -9 11 -4 20 -14 20 -22 -1 -8 2 -20 6 -25 5 -7 -18
-12 -68 -13 -65 -3 -75 -1 -70 12 5 11 0 16 -16 17 -21 1 -21 1 3 9 23 7 23 8
3 9 -23 1 -32 16 -25 44 3 12 16 17 46 19 l41 1 -42 4 c-29 3 -43 9 -43 19 0
8 -11 15 -27 16 -19 1 -13 3 17 8 l45 7 -40 2 c-32 2 -36 4 -20 11 15 7 9 9
-25 9 -29 1 -40 4 -32 10 11 6 10 10 -5 16 -16 7 -15 9 7 15 23 7 23 8 3 9
-12 1 -25 -4 -28 -9 -10 -16 -35 8 -28 26 4 11 -8 14 -61 14 -37 0 -66 -4 -66
-10 0 -5 10 -11 23 -11 20 -2 20 -2 2 -6 -12 -2 -27 -13 -34 -24 -7 -12 -8
-18 -2 -15 5 4 12 2 15 -3 4 -5 -6 -12 -21 -14 -16 -2 1 -5 37 -7 61 -3 62 -3
25 -10 -37 -7 -36 -7 25 -10 l65 -3 -55 -7 c-30 -4 -49 -7 -41 -8 7 -1 11 -8
8 -17 -4 -8 -2 -17 4 -20 5 -4 7 -10 4 -15 -3 -4 3 -7 12 -6 14 1 16 -8 14
-56 -2 -52 0 -57 20 -60 32 -4 35 -38 3 -38 -19 0 -24 -5 -24 -25 0 -17 -6
-25 -17 -26 -15 0 -15 -2 2 -9 17 -7 18 -9 2 -9 -11 -1 -20 -12 -23 -31 -6
-28 -9 -30 -53 -30 -26 0 -53 6 -60 13 -11 10 -13 10 -7 0 5 -10 -6 -13 -43
-13 -28 0 -51 5 -51 10 0 6 -15 11 -32 11 -32 1 -32 2 7 10 22 4 64 8 93 8 28
1 52 6 52 11 0 6 -5 10 -12 10 -19 0 25 29 45 30 10 0 17 8 17 20 0 13 7 20
20 20 18 0 20 7 20 65 0 36 -3 64 -7 64 -21 -3 -33 2 -33 15 0 8 -12 17 -27
21 -16 4 -22 10 -16 12 24 9 -14 33 -51 33 -32 0 -36 -3 -36 -25 0 -19 -6 -25
-22 -26 -22 -2 -21 -2 2 -7 19 -4 9 -9 -45 -23 -52 -13 -62 -18 -40 -19 l30
-2 -30 -8 -30 -8 30 -2 30 -2 -30 -7 c-28 -6 -30 -9 -27 -44 l4 -37 -66 0
c-37 0 -66 4 -66 10 0 6 -7 10 -15 10 -21 0 -19 -19 3 -27 14 -6 13 -8 -8 -14
-24 -7 -24 -7 -2 -8 26 -1 30 -21 5 -22 -15 0 -15 -2 2 -9 l20 -9 -20 -1 c-19
-1 -19 -1 -2 -14 9 -7 17 -21 17 -30 0 -11 9 -16 28 -17 l27 -1 -30 -8 -30 -8
28 -1 c32 -1 27 -20 -6 -23 -12 0 1 -4 28 -8 l50 -7 -47 -1 c-39 -2 -48 -5
-47 -19 0 -11 3 -13 6 -5 3 7 21 11 46 11 l42 -2 -35 -7 c-19 -4 -29 -8 -22
-9 6 0 12 -10 12 -21 0 -19 -7 -20 -90 -20 -73 0 -90 3 -90 15 0 9 -9 15 -25
15 -31 0 -32 -8 -2 -20 16 -6 -1 -9 -60 -9 -82 -1 -83 -1 -83 -26 0 -18 -5
-25 -20 -25 -16 0 -20 -7 -20 -36 0 -27 -5 -37 -20 -41 -13 -3 -20 -14 -20
-29 0 -19 -5 -24 -25 -24 -18 0 -25 -5 -25 -20 0 -13 7 -20 19 -20 32 0 35
-20 4 -21 l-28 -1 30 -8 c27 -7 25 -8 -16 -9 -38 -1 -47 -4 -45 -18 0 -12 -7
-19 -21 -21 -30 -4 -32 -42 -3 -42 21 0 28 -19 8 -21 -10 0 -10 -2 0 -6 13 -5
17 -24 5 -22 -22 4 -85 -4 -70 -8 18 -5 18 -5 0 -19 -10 -7 -26 -14 -36 -14
-10 0 -15 -4 -12 -10 3 -5 -2 -10 -12 -10 -11 -1 -5 -6 15 -15 21 -9 32 -21
32 -35 0 -17 -6 -20 -40 -20 l-40 0 0 -40 c0 -22 5 -41 10 -41 6 -1 16 -2 23
-3 6 0 13 -7 13 -13 1 -7 2 -17 3 -23 3 -23 31 -9 31 15 0 20 5 25 24 25 18 0
23 5 22 22 -1 18 4 22 22 20 20 -3 22 1 22 42 0 25 4 47 10 51 5 3 6 13 3 22
-5 12 -2 15 10 10 13 -5 17 -1 17 18 0 20 5 25 25 25 20 0 25 5 25 25 0 16 6
25 15 25 10 0 15 10 15 29 0 16 3 43 6 60 6 29 9 31 50 31 54 0 59 -19 7 -21
l-38 -2 38 -6 c21 -3 38 -9 37 -13 -2 -64 1 -77 23 -81 22 -4 22 -5 -3 -13
l-25 -8 25 -7 c24 -7 24 -7 3 -8 -21 -1 -23 -6 -23 -56 l0 -55 48 -2 47 -2
-47 -3 c-27 -2 -48 -8 -48 -12 0 -5 11 -7 25 -6 18 3 23 0 18 -10 -5 -7 -7
-48 -5 -89 3 -67 6 -76 23 -76 17 0 19 -8 19 -65 0 -63 1 -65 26 -65 15 0 23
-4 19 -10 -4 -6 -4 -24 0 -40 l7 -30 399 0 c348 0 399 2 399 15 0 9 9 15 25
15 34 0 36 39 3 41 l-23 2 23 4 c19 4 22 11 22 49 0 41 2 44 26 44 23 0 25 3
24 38 -5 93 0 132 15 132 12 0 15 18 16 98 1 53 1 103 0 110 -1 7 10 12 26 13
l28 1 -25 8 c-24 8 -24 8 -2 9 14 1 22 7 22 19 0 14 -2 15 -10 2 -5 -8 -12
-11 -16 -8 -10 11 4 40 16 33 5 -3 10 -1 10 4 0 6 -10 11 -22 11 -19 0 -20 2
-8 10 12 8 12 10 1 10 -11 0 -11 3 -1 15 7 8 16 13 20 10 5 -3 7 15 4 40 -3
36 -1 45 11 45 9 0 13 -5 10 -11 -4 -5 3 -18 14 -28 12 -10 21 -26 21 -35 0
-9 7 -16 15 -16 21 0 19 -20 -2 -21 -14 0 -13 -2 5 -9 12 -6 22 -18 22 -30 0
-13 7 -20 20 -20 15 0 20 -7 20 -29 0 -39 9 -61 26 -61 10 0 14 -12 14 -38 0
-32 5 -41 25 -50 14 -6 25 -15 24 -19 -1 -5 -1 -20 0 -35 1 -22 6 -28 24 -29
21 -1 21 -1 -3 -9 -24 -8 -25 -8 -2 -9 31 -1 25 -34 -8 -42 -24 -6 -24 -7 5
-9 30 -2 30 -2 5 -10 -25 -8 -25 -8 5 -10 l30 -3 -35 -7 c-31 -7 -32 -7 -7 -9
46 -2 30 -21 -20 -23 -27 -1 -6 -5 47 -8 l95 -6 -75 -2 c-71 -2 -87 -15 -30
-25 14 -2 0 -5 -30 -7 -45 -2 -49 -4 -25 -9 21 -4 26 -9 17 -15 -7 -4 -19 -5
-27 -2 -8 3 -15 1 -15 -4 0 -6 -46 -11 -107 -12 -97 -2 -100 -2 -28 -5 117 -5
124 -17 15 -23 l-95 -6 110 -4 c87 -2 100 -4 65 -10 -25 -4 -35 -8 -22 -8 26
-2 29 -19 5 -25 -10 -3 11 -6 47 -7 42 -2 54 -5 35 -8 l-30 -5 30 -7 c20 -5 0
-9 -65 -11 l-95 -3 70 -5 70 -6 -75 -10 -75 -9 75 -6 c41 -4 -118 -8 -355 -10
-287 -3 -385 -6 -295 -10 207 -9 187 -11 -192 -24 -151 -4 -158 -4 -158 15 0
18 -10 19 -300 19 l-301 0 3 -40 c1 -31 6 -40 20 -40 24 0 25 -40 1 -41 -17
-1 -17 -2 0 -6 19 -5 24 -33 5 -33 -9 0 -9 -3 1 -9 19 -12 22 -161 3 -168 -20
-8 -83 7 -76 18 3 6 -3 13 -15 16 -11 3 -23 14 -26 24 -4 10 -15 19 -26 19
-14 0 -19 7 -19 25 0 19 -5 25 -22 26 -22 0 -22 1 -3 9 16 7 16 9 4 9 -9 1
-20 12 -23 26 -4 14 -13 25 -21 25 -8 0 -17 11 -21 25 -4 17 -13 25 -28 26
-20 0 -20 1 -1 9 20 9 20 9 0 9 -16 1 -20 7 -19 29 0 21 7 28 30 33 23 5 20 7
-21 9 -38 1 -45 4 -30 10 17 7 17 9 3 9 -26 1 -22 19 5 24 12 2 -3 6 -33 7
-40 2 -47 4 -25 8 l30 5 -25 7 c-20 6 -15 8 25 10 28 2 40 5 28 7 -13 2 -23
11 -23 19 0 10 -14 14 -52 16 l-53 1 65 7 c43 4 53 7 28 8 -52 3 -48 20 5 25
23 2 5 4 -40 5 -66 2 -83 5 -83 17 0 12 20 15 108 17 l107 2 -107 3 c-100 3
-108 5 -108 23 0 18 8 20 68 22 63 2 64 2 15 5 -66 5 -70 22 -5 25 26 1 0 5
-58 8 -81 5 -90 7 -42 8 39 1 61 6 57 12 -4 6 30 11 92 12 l98 2 -110 6 c-78
4 -92 7 -47 8 108 3 70 22 -50 24 l-113 2 135 6 135 6 -110 4 c-81 3 -94 5
-50 7 85 6 95 23 15 25 l-65 1 60 7 60 7 -45 3 c-26 2 5 7 70 10 l115 6 -170
4 c-138 3 -155 5 -90 9 77 6 84 18 12 23 -18 1 31 5 108 8 l140 6 -139 2
c-164 2 -176 14 -17 15 61 1 111 3 111 4 0 10 -46 19 -51 10 -5 -6 -29 -5 -73
3 -36 7 -81 9 -100 6 -38 -7 -56 7 -29 23 17 10 17 10 -2 11 l-20 1 20 9 c17
7 17 9 3 9 -10 1 -18 6 -18 11 0 6 81 11 218 12 l217 2 -220 6 -220 6 218 2
c149 1 216 5 212 12 -4 6 -20 9 -35 6 -42 -6 -60 19 -23 32 l28 10 -35 2 c-19
1 -30 4 -24 6 18 7 4 44 -15 44 -10 0 -18 7 -18 15 0 11 13 15 46 17 41 1 39
2 -19 8 -53 5 -57 7 -22 8 52 2 56 21 5 24 -21 1 7 5 62 8 89 5 92 6 33 8 -38
1 -68 7 -68 12 0 6 8 11 18 12 9 1 -19 5 -63 8 l-80 6 90 4 c50 1 77 5 60 8
l-30 5 25 7 c15 5 -16 8 -80 9 -97 1 -106 3 -107 20 -1 16 6 21 35 24 27 3 21
4 -20 5 -35 1 -58 6 -58 13 0 6 9 9 20 6 11 -3 20 -1 20 3 0 5 -10 11 -22 13
-13 2 27 6 87 7 103 3 106 4 45 10 l-65 7 70 3 70 4 -70 6 -70 6 66 2 c64 2
66 3 64 27 -3 24 -1 25 46 25 42 0 49 3 47 18 -3 14 6 17 60 20 34 2 62 7 62
12 0 6 -10 11 -22 11 -21 1 -21 2 -3 6 11 3 22 9 25 14 3 4 34 9 68 10 51 2
62 5 60 18 -2 10 5 17 20 19 29 4 31 42 2 42 -13 0 -20 7 -20 20 0 21 -13 23
-65 10 l-30 -8 28 -1 c54 -2 15 -21 -44 -21 -52 0 -59 -2 -59 -20 0 -18 -7
-20 -92 -21 -65 -1 -84 -4 -63 -9 24 -6 18 -8 -35 -11 l-65 -2 65 -6 c80 -7
65 -24 -18 -20 -31 1 -93 1 -137 -1 -64 -2 -73 -4 -45 -10 24 -5 28 -8 12 -9
-13 0 -20 -5 -17 -11 3 -5 -3 -10 -14 -10 -12 0 -21 5 -21 10 0 6 -12 11 -27
11 l-28 2 28 4 c15 2 25 8 22 13 -3 5 -12 7 -20 3 -8 -3 -15 -1 -15 4 0 5 46
10 102 11 56 2 104 5 107 7 2 3 -56 6 -130 7 -74 1 -104 3 -66 5 50 3 67 8 67
18 0 8 -8 16 -17 16 -17 1 -17 2 0 6 24 6 21 23 -5 25 -13 1 27 5 87 8 l110 6
-110 3 c-60 2 -100 6 -87 8 12 2 22 10 21 16 -3 29 3 37 27 37 14 0 23 -4 19
-10 -4 -6 25 -9 82 -8 l88 2 -80 6 c-44 3 -71 8 -60 9 13 3 9 6 -15 11 l-35 7
34 2 c35 1 37 10 4 16 -31 6 -29 8 17 15 l45 7 -42 1 c-47 2 -60 21 -15 23
l27 1 -30 8 -30 8 30 2 30 2 -30 8 c-28 7 -27 8 15 10 l45 3 -40 7 c-22 4 -30
8 -17 9 12 0 22 6 22 12 0 6 -7 9 -15 6 -8 -4 -17 -2 -20 3 -3 5 12 11 32 13
l38 4 -42 1 c-33 2 -41 5 -37 17 4 11 22 15 63 16 59 1 125 15 86 19 -18 1
-18 2 3 11 13 5 89 10 169 11 143 3 146 3 149 26 3 18 -1 22 -24 23 -20 1 -22
2 -7 6 11 3 25 10 30 15 7 7 7 9 0 6 -5 -3 -19 -2 -30 3 -18 7 -17 8 6 8 31 1
47 27 21 34 -9 3 -2 5 16 6 26 1 32 -3 32 -19 0 -18 7 -20 66 -20 l65 0 -3
-27 c-2 -23 0 -27 17 -24 11 2 38 4 60 5 39 1 40 2 43 42 l3 41 -108 8 c-59 4
-114 7 -120 8 -7 0 -13 4 -13 8 0 4 26 10 58 12 l57 3 -68 2 c-52 2 -66 5 -61
15 5 7 0 6 -11 -3 -10 -8 -16 -10 -12 -4 6 10 -4 17 -36 22 -4 1 -22 10 -40
19 -17 10 -61 21 -97 24 -51 4 -37 6 70 8 87 2 124 6 105 11 l-30 8 33 1 c45
1 40 21 -5 23 l-38 1 44 6 c42 6 71 31 36 31 -9 0 -13 -4 -10 -10 4 -6 -5 -10
-20 -10 -14 0 -24 4 -20 9 3 5 -9 12 -27 14 -18 2 0 5 40 5 57 2 72 5 72 17 0
8 4 15 8 15 5 0 15 11 22 25 7 14 20 25 29 25 14 0 14 2 1 10 -11 7 -5 10 23
10 29 0 37 4 36 18 0 10 -3 12 -6 5 -2 -7 -14 -12 -26 -12 -16 1 -18 2 -5 6
10 2 15 10 11 19 -3 8 1 14 8 15 8 0 5 4 -6 9 -18 8 -17 9 8 9 29 1 82 -44 71
-60 -3 -5 2 -9 10 -9 15 0 20 -11 17 -37 -1 -8 9 -13 23 -13 18 0 25 -6 28
-22 2 -15 11 -24 26 -26 12 -2 22 -10 22 -18 0 -21 27 -17 33 6 3 12 14 20 26
20 14 0 21 6 21 20 0 17 -7 20 -40 20 -29 0 -40 4 -40 15 0 8 6 15 13 16 7 0
6 3 -3 6 -8 3 -26 10 -40 16 l-25 10 25 7 c24 8 24 8 3 9 -13 1 -23 7 -23 16
0 9 -10 15 -22 16 -22 1 -22 1 2 9 l25 8 -29 1 c-21 1 -27 5 -22 17 4 11 -1
18 -14 21 -13 3 -20 14 -20 28 0 16 -8 25 -27 30 -18 5 -23 9 -14 13 10 3 7 8
-10 18 -23 13 -23 13 14 14 33 0 37 -3 37 -25 0 -40 41 -44 93 -9 52 35 77 46
77 34 0 -6 5 -10 11 -10 5 0 7 5 4 10 -3 6 1 10 9 10 9 0 16 4 16 10 0 11
-115 8 -126 -3 -13 -12 -42 -8 -48 8 -4 11 2 15 22 16 l27 2 -27 4 c-24 4 -28
9 -28 39 0 25 -4 34 -17 34 -9 0 -13 3 -10 7 4 3 2 12 -4 20 -9 10 -3 13 32
15 44 1 44 1 7 5 -30 3 -38 9 -38 24 0 11 7 19 18 20 16 1 16 2 0 6 -13 3 -18
15 -18 44 l0 39 88 1 c75 1 82 2 52 11 -19 5 -58 8 -87 6 -29 -2 -53 0 -53 5
0 4 48 7 107 7 96 0 105 -1 87 -15z m616 11 c0 -2 -9 -6 -20 -9 -11 -3 -20 -1
-20 4 0 5 9 9 20 9 11 0 20 -2 20 -4z m245 -5 c-6 -5 -23 -11 -40 -14 -27 -4
-26 -4 10 -7 l40 -3 -45 -7 -45 -7 43 -1 c23 -1 42 -6 42 -12 0 -5 -19 -11
-42 -12 l-43 -1 42 -4 c24 -2 44 -10 47 -19 3 -7 0 -14 -7 -14 -7 0 -8 -3 -2
-8 6 -4 10 -14 10 -22 0 -8 -4 -18 -10 -22 -6 -5 -6 -8 1 -8 6 0 12 -20 12
-45 2 -39 -1 -45 -18 -45 -15 0 -20 -7 -20 -25 0 -25 -1 -26 -67 -23 -62 3
-66 5 -71 28 -6 34 -5 64 3 133 8 57 8 57 -19 57 -24 0 -26 3 -26 45 l0 45
107 0 c66 0 103 -4 98 -9z m320 -5 l-40 -13 40 -5 40 -5 -45 -1 c-40 -2 -46 1
-46 18 0 17 7 20 46 19 l45 -1 -40 -12z m641 7 c-10 -11 -86 -12 -86 -1 0 4
21 8 47 8 25 0 43 -3 39 -7z m-3663 -30 c-7 -2 -19 -2 -25 0 -7 3 -2 5 12 5
14 0 19 -2 13 -5z m1410 0 c-13 -2 -33 -2 -45 0 -13 2 -3 4 22 4 25 0 35 -2
23 -4z m1040 0 c-7 -2 -19 -2 -25 0 -7 3 -2 5 12 5 14 0 19 -2 13 -5z m1200 0
c-13 -2 -35 -2 -50 0 -16 2 -5 4 22 4 28 0 40 -2 28 -4z m-3683 -23 c0 -5 -9
-10 -20 -10 -11 0 -20 5 -20 10 0 6 9 10 20 10 11 0 20 -4 20 -10z m80 0 c0
-5 -6 -10 -14 -10 -8 0 -18 5 -21 10 -3 6 3 10 14 10 12 0 21 -4 21 -10z
m1380 0 c0 -4 -7 -7 -15 -6 -23 3 -26 12 -5 13 11 1 20 -2 20 -7z m1546 3
c-11 -11 -46 -14 -46 -3 0 6 12 10 27 10 14 0 23 -3 19 -7z m604 -3 c0 -5 -9
-10 -20 -10 -11 0 -20 5 -20 10 0 6 9 10 20 10 11 0 20 -4 20 -10z m130 0 c0
-5 -20 -10 -45 -10 -25 0 -45 5 -45 10 0 6 20 10 45 10 25 0 45 -4 45 -10z
m250 0 c0 -5 -18 -10 -40 -10 -22 0 -40 5 -40 10 0 6 18 10 40 10 22 0 40 -4
40 -10z m122 -2 c-9 -9 -15 -9 -24 0 -9 9 -7 12 12 12 19 0 21 -3 12 -12z
m-1132 -33 c11 -13 7 -15 -24 -15 -34 0 -44 8 -29 23 11 12 40 8 53 -8z
m-1480 -5 c0 -5 -9 -10 -21 -10 -11 0 -17 5 -14 10 3 6 13 10 21 10 8 0 14 -4
14 -10z m990 -2 c0 -4 -9 -8 -20 -8 -11 0 -20 4 -20 9 0 6 9 9 20 8 11 -1 20
-5 20 -9z m1590 2 c0 -5 -9 -10 -20 -10 -11 0 -20 5 -20 10 0 6 9 10 20 10 11
0 20 -4 20 -10z m-2583 -26 c-3 -3 -12 -4 -19 -1 -8 3 -5 6 6 6 11 1 17 -2 13
-5z m1029 -2 c-5 -8 -76 -4 -76 4 0 2 18 4 41 4 22 0 38 -4 35 -8z m434 -12
c0 -13 -7 -20 -20 -20 -13 0 -20 7 -20 20 0 13 7 20 20 20 13 0 20 -7 20 -20z
m1113 13 c-7 -2 -21 -2 -30 0 -10 3 -4 5 12 5 17 0 24 -2 18 -5z m-1543 -25
c0 -4 -17 -8 -37 -7 -33 1 -35 2 -13 8 33 10 50 9 50 -1z m-987 -5 c-7 -2 -21
-2 -30 0 -10 3 -4 5 12 5 17 0 24 -2 18 -5z m2470 0 c-13 -2 -33 -2 -45 0 -13
2 -3 4 22 4 25 0 35 -2 23 -4z m-4066 -19 c-3 -3 -12 -4 -19 -1 -8 3 -5 6 6 6
11 1 17 -2 13 -5z m136 -1 c-7 -2 -19 -2 -25 0 -7 3 -2 5 12 5 14 0 19 -2 13
-5z m2447 -3 c0 -5 -6 -10 -14 -10 -8 0 -18 5 -21 10 -3 6 3 10 14 10 12 0 21
-4 21 -10z m397 -2 c-28 -7 -42 -7 -50 1 -8 8 2 11 39 10 l49 -1 -38 -10z
m-397 -33 c0 -8 -9 -15 -20 -15 -11 0 -20 7 -20 15 0 8 9 15 20 15 11 0 20 -7
20 -15z m374 9 c9 -3 16 -16 16 -29 0 -19 -5 -22 -30 -20 -17 1 -33 -2 -37 -8
-3 -6 -1 -7 5 -3 7 4 12 2 12 -3 0 -6 -7 -11 -15 -11 -8 0 -15 7 -15 15 0 9
-10 15 -27 16 l-28 1 30 8 30 8 -27 1 c-46 2 -31 20 20 24 26 2 48 4 49 5 1 1
8 -1 17 -4z m-2854 -14 c0 -6 -28 -10 -65 -10 -37 0 -65 4 -65 10 0 6 28 10
65 10 37 0 65 -4 65 -10z m1536 -12 c-5 -34 -36 -36 -36 -4 0 19 5 26 20 26
15 0 19 -6 16 -22z m2258 14 c2 -4 -11 -9 -30 -10 -19 -2 -34 2 -34 8 0 12 56
14 64 2z m106 -2 c0 -5 -9 -10 -20 -10 -11 0 -20 5 -20 10 0 6 9 10 20 10 11
0 20 -4 20 -10z m-3933 -27 c-20 -2 -52 -2 -70 0 -17 2 0 4 38 4 39 0 53 -2
32 -4z m2506 0 c-7 -2 -19 -2 -25 0 -7 3 -2 5 12 5 14 0 19 -2 13 -5z m1314 0
c-20 -2 -52 -2 -70 0 -17 2 0 4 38 4 39 0 53 -2 32 -4z m106 0 c-7 -2 -19 -2
-25 0 -7 3 -2 5 12 5 14 0 19 -2 13 -5z m170 0 c-7 -2 -19 -2 -25 0 -7 3 -2 5
12 5 14 0 19 -2 13 -5z m-4143 -23 c22 -7 21 -8 -12 -9 -21 -1 -38 4 -38 9 0
11 14 11 50 0z m1657 -4 c-7 -18 12 -34 36 -31 9 2 17 -1 17 -6 0 -5 -16 -9
-35 -7 -19 1 -35 6 -35 10 0 4 -5 7 -11 6 -6 -2 -13 7 -15 20 -3 18 1 22 22
22 19 0 25 -4 21 -14z m903 4 c0 -5 -9 -10 -20 -10 -11 0 -20 5 -20 10 0 6 9
10 20 10 11 0 20 -4 20 -10z m1295 0 c4 -6 -5 -10 -19 -10 -14 0 -26 5 -26 10
0 6 9 10 19 10 11 0 23 -4 26 -10z m-3847 -27 c-10 -2 -28 -2 -40 0 -13 2 -5
4 17 4 22 1 32 -1 23 -4z m2846 -4 c-2 -4 2 -10 8 -12 7 -3 -9 -5 -37 -5 -27
0 -41 2 -30 5 11 3 24 8 28 12 10 10 37 10 31 0z m43 5 c-3 -3 -12 -4 -19 -1
-8 3 -5 6 6 6 11 1 17 -2 13 -5z m956 -1 c-7 -2 -21 -2 -30 0 -10 3 -4 5 12 5
17 0 24 -2 18 -5z m184 0 c-20 -2 -52 -2 -70 0 -17 2 0 4 38 4 39 0 53 -2 32
-4z m-3869 -20 c-10 -2 -26 -2 -35 0 -10 3 -2 5 17 5 19 0 27 -2 18 -5z m1615
-20 c-7 -2 -19 -2 -25 0 -7 3 -2 5 12 5 14 0 19 -2 13 -5z m-1720 -10 c-7 -2
-19 -2 -25 0 -7 3 -2 5 12 5 14 0 19 -2 13 -5z m-80 -20 c-7 -2 -19 -2 -25 0
-7 3 -2 5 12 5 14 0 19 -2 13 -5z m90 0 c-7 -2 -21 -2 -30 0 -10 3 -4 5 12 5
17 0 24 -2 18 -5z m1534 1 c-3 -3 -12 -4 -19 -1 -8 3 -5 6 6 6 11 1 17 -2 13
-5z m-1617 -24 c0 -5 -9 -10 -20 -10 -11 0 -20 5 -20 10 0 6 9 10 20 10 11 0
20 -4 20 -10z m80 0 c0 -5 -9 -10 -20 -10 -11 0 -20 5 -20 10 0 6 9 10 20 10
11 0 20 -4 20 -10z m2863 -47 c-13 -2 -33 -2 -45 0 -13 2 -3 4 22 4 25 0 35
-2 23 -4z m130 0 c-13 -2 -35 -2 -50 0 -16 2 -5 4 22 4 28 0 40 -2 28 -4z
m-3080 -20 c-7 -2 -19 -2 -25 0 -7 3 -2 5 12 5 14 0 19 -2 13 -5z m2966 3
c-12 -10 -79 -16 -79 -6 0 5 19 10 42 10 23 0 39 -2 37 -4z m127 -5 c-5 -8
-76 -4 -85 5 -2 2 17 4 43 4 26 0 45 -4 42 -9z m-3063 -28 c-13 -2 -33 -2 -45
0 -13 2 -3 4 22 4 25 0 35 -2 23 -4z m2850 0 c-7 -2 -21 -2 -30 0 -10 3 -4 5
12 5 17 0 24 -2 18 -5z m80 0 c-7 -2 -21 -2 -30 0 -10 3 -4 5 12 5 17 0 24 -2
18 -5z m95 0 c-10 -2 -26 -2 -35 0 -10 3 -2 5 17 5 19 0 27 -2 18 -5z m75 0
c-7 -2 -19 -2 -25 0 -7 3 -2 5 12 5 14 0 19 -2 13 -5z m-3087 -21 c-7 -12 -76
-14 -76 -2 0 5 18 10 41 10 22 0 38 -4 35 -8z m89 -2 c-3 -5 -13 -10 -21 -10
-8 0 -14 5 -14 10 0 6 9 10 21 10 11 0 17 -4 14 -10z m2835 1 c0 -10 -26 -9
-36 2 -4 4 2 7 14 7 12 0 22 -4 22 -9z m60 5 c0 -3 -4 -8 -10 -11 -5 -3 -10
-1 -10 4 0 6 5 11 10 11 6 0 10 -2 10 -4z m-3027 -33 c-7 -2 -19 -2 -25 0 -7
3 -2 5 12 5 14 0 19 -2 13 -5z m3085 0 c-10 -2 -28 -2 -40 0 -13 2 -5 4 17 4
22 1 32 -1 23 -4z m82 -1 c-23 -4 -24 -5 -5 -13 12 -4 -26 -7 -90 -6 -106 1
-106 1 -22 4 48 2 87 8 87 13 0 6 12 9 28 9 27 -2 27 -2 2 -7z m-3087 -39 c-7
-2 -19 -2 -25 0 -7 3 -2 5 12 5 14 0 19 -2 13 -5z m-80 -30 c-7 -2 -19 -2 -25
0 -7 3 -2 5 12 5 14 0 19 -2 13 -5z m90 0 c-7 -2 -21 -2 -30 0 -10 3 -4 5 12
5 17 0 24 -2 18 -5z m1020 0 c-7 -2 -19 -2 -25 0 -7 3 -2 5 12 5 14 0 19 -2
13 -5z m355 0 c-10 -2 -26 -2 -35 0 -10 3 -2 5 17 5 19 0 27 -2 18 -5z m70 0
c-10 -2 -26 -2 -35 0 -10 3 -2 5 17 5 19 0 27 -2 18 -5z m1725 0 c-7 -2 -19
-2 -25 0 -7 3 -2 5 12 5 14 0 19 -2 13 -5z m100 0 c-7 -2 -21 -2 -30 0 -10 3
-4 5 12 5 17 0 24 -2 18 -5z m-3267 -22 c-3 -5 -15 -7 -26 -4 -28 7 -25 13 6
13 14 0 23 -4 20 -9z m1361 3 c-3 -3 -12 -4 -19 -1 -8 3 -5 6 6 6 11 1 17 -2
13 -5z m93 -4 c0 -5 -9 -10 -20 -10 -11 0 -20 5 -20 10 0 6 9 10 20 10 11 0
20 -4 20 -10z m1237 4 c-3 -3 -12 -4 -19 -1 -8 3 -5 6 6 6 11 1 17 -2 13 -5z
m223 -4 c0 -6 -27 -10 -60 -10 -33 0 -60 4 -60 10 0 6 27 10 60 10 33 0 60 -4
60 -10z m90 0 c0 -5 -9 -10 -19 -10 -11 0 -23 5 -26 10 -4 6 5 10 19 10 14 0
26 -4 26 -10z m170 1 c0 -10 -26 -9 -36 2 -4 4 2 7 14 7 12 0 22 -4 22 -9z
m100 5 c0 -2 -11 -6 -25 -8 -14 -3 -25 -1 -25 3 0 5 11 9 25 9 14 0 25 -2 25
-4z m-2037 -33 c-7 -2 -21 -2 -30 0 -10 3 -4 5 12 5 17 0 24 -2 18 -5z m1787
-1 c-23 -4 -24 -5 -5 -13 13 -5 0 -8 -42 -8 -35 -1 -63 3 -63 8 0 6 -19 12
-42 14 -24 2 7 4 67 4 61 0 99 -2 85 -5z m143 1 c-7 -2 -19 -2 -25 0 -7 3 -2
5 12 5 14 0 19 -2 13 -5z m90 0 c-7 -2 -21 -2 -30 0 -10 3 -4 5 12 5 17 0 24
-2 18 -5z m-90 -20 c-7 -2 -19 -2 -25 0 -7 3 -2 5 12 5 14 0 19 -2 13 -5z m84
1 c-3 -3 -12 -4 -19 -1 -8 3 -5 6 6 6 11 1 17 -2 13 -5z m-2067 -24 c-10 -6
-11 -10 -2 -10 6 0 12 -4 12 -10 0 -5 -21 -9 -47 -9 -27 1 -39 3 -28 6 45 10
50 16 20 23 -27 7 -25 8 15 9 32 0 41 -2 30 -9z m133 3 c-7 -2 -19 -2 -25 0
-7 3 -2 5 12 5 14 0 19 -2 13 -5z m-1380 -50 c-13 -2 -33 -2 -45 0 -13 2 -3 4
22 4 25 0 35 -2 23 -4z m2897 -93 c0 -5 -9 -10 -20 -10 -11 0 -20 5 -20 10 0
6 9 10 20 10 11 0 20 -4 20 -10z m-2927 -27 c-7 -2 -19 -2 -25 0 -7 3 -2 5 12
5 14 0 19 -2 13 -5z m3080 0 c-13 -2 -35 -2 -50 0 -16 2 -5 4 22 4 28 0 40 -2
28 -4z m-40 -34 c17 -1 18 -2 5 -6 -10 -2 -18 -8 -18 -13 0 -5 8 -11 18 -13 9
-3 -17 -5 -58 -5 -41 0 -67 2 -57 5 18 5 18 5 0 19 -16 12 -13 13 30 14 30 0
47 4 48 13 0 10 2 10 6 0 2 -7 14 -14 26 -14z m-3033 -5 c0 -2 -9 -4 -20 -4
-11 0 -20 4 -20 9 0 5 9 7 20 4 11 -3 20 -7 20 -9z m-7 -31 c-7 -2 -19 -2 -25
0 -7 3 -2 5 12 5 14 0 19 -2 13 -5z m80 -70 c-7 -2 -19 -2 -25 0 -7 3 -2 5 12
5 14 0 19 -2 13 -5z m10 -20 c-7 -2 -21 -2 -30 0 -10 3 -4 5 12 5 17 0 24 -2
18 -5z m2910 0 c-7 -2 -19 -2 -25 0 -7 3 -2 5 12 5 14 0 19 -2 13 -5z m0 -30
c-7 -2 -19 -2 -25 0 -7 3 -2 5 12 5 14 0 19 -2 13 -5z m-560 -50 c-7 -2 -19
-2 -25 0 -7 3 -2 5 12 5 14 0 19 -2 13 -5z m47 -69 c0 -2 -9 -4 -20 -4 -11 0
-20 4 -20 9 0 5 9 7 20 4 11 -3 20 -7 20 -9z m-7 -21 c-7 -2 -19 -2 -25 0 -7
3 -2 5 12 5 14 0 19 -2 13 -5z m-1840 -30 c-7 -2 -19 -2 -25 0 -7 3 -2 5 12 5
14 0 19 -2 13 -5z m300 0 c-7 -2 -19 -2 -25 0 -7 3 -2 5 12 5 14 0 19 -2 13
-5z m-346 -39 c-3 -3 -12 -4 -19 -1 -8 3 -5 6 6 6 11 1 17 -2 13 -5z m176 -1
c-7 -2 -19 -2 -25 0 -7 3 -2 5 12 5 14 0 19 -2 13 -5z m-30 -30 c-7 -2 -21 -2
-30 0 -10 3 -4 5 12 5 17 0 24 -2 18 -5z m70 0 c-7 -2 -19 -2 -25 0 -7 3 -2 5
12 5 14 0 19 -2 13 -5z m-20 -20 c-18 -2 -48 -2 -65 0 -18 2 -4 4 32 4 36 0
50 -2 33 -4z m1962 -8 l-50 -13 45 -3 45 -2 -42 -4 c-24 -2 -43 -8 -43 -14 0
-5 -8 -9 -19 -9 -13 0 -20 9 -23 30 l-5 30 71 -1 71 -1 -50 -13z m237 8 c-36
-7 -26 -47 13 -51 67 -6 95 -13 95 -27 0 -9 14 -15 43 -17 35 -2 43 -7 45 -25
3 -20 10 -22 70 -25 57 -3 67 -6 64 -20 -2 -16 6 -18 63 -18 37 0 65 -4 65
-10 0 -5 7 -10 15 -10 8 0 15 -7 15 -15 0 -11 13 -15 53 -16 41 -1 47 -3 27
-9 -24 -8 -24 -8 -2 -9 12 -1 22 -5 22 -11 0 -5 10 -11 23 -11 l22 -2 -22 -4
c-27 -5 -31 -22 -5 -25 9 -1 -14 -4 -53 -8 l-70 -6 68 -2 c37 -1 67 -6 67 -12
0 -5 -8 -10 -17 -11 -15 0 -15 -2 2 -9 15 -7 10 -9 -22 -9 -24 -1 -43 -5 -43
-10 0 -5 -8 -12 -17 -14 -10 -3 2 -6 27 -7 l45 -3 -35 -7 c-31 -6 -32 -8 -8
-9 52 -2 41 -21 -12 -21 -42 0 -51 3 -46 15 4 12 -4 15 -42 14 -48 -1 -48 -2
3 -15 l30 -8 -40 -6 -40 -7 50 -2 c36 -1 46 -4 34 -11 -9 -5 -26 -8 -37 -5
-12 2 -24 0 -26 -4 -3 -4 16 -8 42 -10 78 -4 60 -11 -34 -13 l-89 -2 75 -6 75
-6 -65 -4 -65 -4 90 -6 90 -6 -95 -4 c-87 -3 -90 -3 -38 -9 95 -10 77 -21 -38
-23 l-109 -2 120 -6 c120 -6 120 -6 31 -8 -90 -2 -112 -9 -43 -14 33 -2 37 -5
37 -30 0 -28 -1 -28 -67 -30 l-68 -2 67 -3 c64 -4 67 -5 70 -31 2 -19 8 -26
21 -24 20 3 23 -13 4 -21 -14 -5 -39 6 -38 17 1 3 -1 6 -4 6 -28 0 -29 -1 -16
-9 10 -7 5 -11 -18 -16 -38 -8 -41 -24 -3 -27 15 -1 -13 -5 -63 -8 l-90 -6 90
-3 90 -3 -55 -13 -55 -12 50 -5 c31 -3 14 -5 -45 -5 -62 0 -85 2 -65 7 29 7
29 8 -10 10 -22 1 -44 2 -48 1 -4 -1 -7 4 -6 11 1 7 1 28 0 46 -1 25 -5 32
-21 32 -13 0 -20 7 -20 20 0 11 -6 20 -12 20 -9 0 -8 4 2 10 11 7 2 10 -32 10
-36 0 -48 4 -48 15 0 8 5 15 11 15 5 0 7 -4 4 -10 -4 -6 5 -10 19 -10 14 0 26
5 26 11 0 6 -6 9 -13 6 -10 -4 -13 2 -9 19 3 19 0 24 -17 24 -18 0 -21 6 -21
40 0 33 -3 40 -20 40 -15 0 -20 7 -20 24 0 18 -6 25 -22 28 -13 2 -23 10 -24
18 -1 8 -2 25 -2 38 -1 12 -9 22 -17 22 -14 0 -20 27 -16 73 2 12 -5 17 -23
17 -19 0 -26 -5 -26 -20 0 -14 -7 -20 -24 -20 -20 0 -24 -4 -21 -25 2 -23 -1
-25 -41 -25 -32 0 -44 -4 -44 -14 0 -10 14 -16 43 -19 33 -3 29 -4 -20 -5 -55
-2 -63 -5 -63 -21 0 -15 -9 -20 -41 -23 -22 -2 -43 0 -45 4 -3 4 -14 8 -25 8
-27 0 -24 20 4 21 21 0 21 1 2 9 -15 7 -10 9 25 10 35 1 40 3 25 10 -19 8 -19
9 3 9 13 1 20 5 17 11 -6 9 14 14 42 11 8 -1 10 5 7 14 -4 9 -1 15 9 15 8 0
17 7 21 15 3 8 13 15 23 16 12 1 10 3 -7 9 -24 8 -24 8 -2 9 12 1 22 6 22 11
0 6 10 11 23 12 12 0 2 4 -23 8 l-45 7 45 2 45 3 -40 13 -40 13 45 3 45 2 -50
7 -50 7 47 1 c40 2 47 5 45 22 -1 15 -8 20 -32 20 -23 0 -27 -3 -15 -10 11 -7
-1 -9 -40 -8 -30 0 -43 3 -27 5 45 7 34 33 -15 35 l-43 1 45 7 c25 4 35 8 23
8 -13 1 -23 6 -23 12 0 6 25 8 63 6 76 -6 78 -6 47 -16 -17 -6 -4 -8 45 -8 39
1 58 3 43 5 -43 7 -33 23 15 25 l42 1 -45 7 c-43 7 -33 13 20 12 16 -1 19 1 8
4 -10 3 -18 14 -18 25 0 15 8 19 38 21 25 1 15 4 -28 8 -64 6 -64 7 25 7 50 0
80 -2 67 -4z m-2082 -38 c0 -8 -9 -15 -21 -15 -11 0 -18 4 -15 9 4 5 0 12 -6
14 -7 3 -1 6 15 6 18 1 27 -4 27 -14z m1243 -26 c7 -1 1 -5 -13 -9 -24 -8 -24
-8 -2 -9 12 -1 22 -6 22 -12 0 -7 -15 -9 -42 -5 -57 7 -57 7 -28 16 19 6 9 9
-40 11 l-65 2 65 7 c36 3 71 5 78 3 8 -2 19 -3 25 -4z m-870 -6 c-7 -2 -19 -2
-25 0 -7 3 -2 5 12 5 14 0 19 -2 13 -5z m1474 0 c-20 -2 -52 -2 -70 0 -17 2 0
4 38 4 39 0 53 -2 32 -4z m-1470 -19 c-3 -3 -12 -4 -19 -1 -8 3 -5 6 6 6 11 1
17 -2 13 -5z m911 -37 c3 -13 -3 -17 -23 -17 -15 0 -24 4 -20 10 4 6 -6 11
-22 11 l-28 1 30 8 c42 11 59 8 63 -13z m-1595 6 c-7 -2 -19 -2 -25 0 -7 3 -2
5 12 5 14 0 19 -2 13 -5z m124 1 c-3 -3 -12 -4 -19 -1 -8 3 -5 6 6 6 11 1 17
-2 13 -5z m331 -1 c-10 -2 -26 -2 -35 0 -10 3 -2 5 17 5 19 0 27 -2 18 -5z
m2925 0 c-13 -2 -33 -2 -45 0 -13 2 -3 4 22 4 25 0 35 -2 23 -4z m-2943 -37
c0 -8 -3 -17 -8 -20 -10 -6 -43 19 -35 27 12 13 43 7 43 -7z m2915 5 c7 -12
-22 -18 -60 -12 l-30 5 30 7 c44 10 53 10 60 0z m-3322 -8 c-13 -2 -33 -2 -45
0 -13 2 -3 4 22 4 25 0 35 -2 23 -4z m270 0 c-7 -2 -21 -2 -30 0 -10 3 -4 5
12 5 17 0 24 -2 18 -5z m1200 0 c-7 -2 -19 -2 -25 0 -7 3 -2 5 12 5 14 0 19
-2 13 -5z m520 0 c-7 -2 -21 -2 -30 0 -10 3 -4 5 12 5 17 0 24 -2 18 -5z
m-1686 -29 c-3 -3 -12 -4 -19 -1 -8 3 -5 6 6 6 11 1 17 -2 13 -5z m2976 -1
c-7 -2 -21 -2 -30 0 -10 3 -4 5 12 5 17 0 24 -2 18 -5z m7 -21 c0 -4 -9 -8
-20 -9 -11 -1 -20 2 -20 8 0 5 9 9 20 9 11 0 20 -4 20 -8z m-3323 -28 c-3 -3
-12 -4 -19 -1 -8 3 -5 6 6 6 11 1 17 -2 13 -5z m3316 -1 c-7 -2 -21 -2 -30 0
-10 3 -4 5 12 5 17 0 24 -2 18 -5z m-3220 -40 c-7 -2 -19 -2 -25 0 -7 3 -2 5
12 5 14 0 19 -2 13 -5z m1410 0 c-7 -2 -19 -2 -25 0 -7 3 -2 5 12 5 14 0 19
-2 13 -5z m474 1 c-3 -3 -12 -4 -19 -1 -8 3 -5 6 6 6 11 1 17 -2 13 -5z m86
-1 c-7 -2 -19 -2 -25 0 -7 3 -2 5 12 5 14 0 19 -2 13 -5z m1190 0 c-13 -2 -33
-2 -45 0 -13 2 -3 4 22 4 25 0 35 -2 23 -4z m23 -26 c4 -4 -15 -6 -42 -6 -42
1 -45 2 -19 8 35 8 52 8 61 -2z m-3183 -4 c-7 -2 -19 -2 -25 0 -7 3 -2 5 12 5
14 0 19 -2 13 -5z m1410 0 c-7 -2 -19 -2 -25 0 -7 3 -2 5 12 5 14 0 19 -2 13
-5z m560 0 c-7 -2 -19 -2 -25 0 -7 3 -2 5 12 5 14 0 19 -2 13 -5z m-1850 -20
c-7 -2 -19 -2 -25 0 -7 3 -2 5 12 5 14 0 19 -2 13 -5z m1037 -8 c-10 -12 -10
-15 1 -15 12 0 11 -2 0 -9 -11 -7 -7 -10 15 -14 16 -2 0 -4 -36 -5 -46 0 -58
2 -40 8 24 8 24 8 3 9 -16 1 -23 7 -23 21 0 17 7 20 46 20 40 0 45 -2 34 -15z
m130 -5 c0 -17 -7 -20 -43 -20 -36 0 -43 3 -43 20 0 17 7 20 43 20 36 0 43 -3
43 -20z m683 13 c-7 -2 -19 -2 -25 0 -7 3 -2 5 12 5 14 0 19 -2 13 -5z m-1850
-30 c-7 -2 -19 -2 -25 0 -7 3 -2 5 12 5 14 0 19 -2 13 -5z m3010 0 c-7 -2 -19
-2 -25 0 -7 3 -2 5 12 5 14 0 19 -2 13 -5z m-2726 -20 c-20 -2 -52 -2 -70 0
-17 2 0 4 38 4 39 0 53 -2 32 -4z m2636 0 c-7 -2 -19 -2 -25 0 -7 3 -2 5 12 5
14 0 19 -2 13 -5z m-2890 -20 c-13 -2 -33 -2 -45 0 -13 2 -3 4 22 4 25 0 35
-2 23 -4z m1082 -3 c-20 -5 -24 -8 -10 -9 11 -1 27 -6 35 -11 11 -7 -4 -10
-48 -10 -40 0 -61 4 -57 10 3 6 16 11 28 12 12 1 -7 4 -43 8 -62 6 -61 7 30 7
62 0 85 -2 65 -7z m1858 3 c-7 -2 -19 -2 -25 0 -7 3 -2 5 12 5 14 0 19 -2 13
-5z m-2923 -23 c0 -5 -9 -10 -21 -10 -11 0 -17 5 -14 10 3 6 13 10 21 10 8 0
14 -4 14 -10z m265 0 c4 -6 -11 -10 -37 -10 -31 0 -39 3 -28 10 20 13 57 13
65 0z m1635 -5 c0 -1 -12 -2 -26 -2 -17 0 -22 2 -13 7 10 7 39 3 39 -5z
m-1957 -22 c-13 -2 -33 -2 -45 0 -13 2 -3 4 22 4 25 0 35 -2 23 -4z m144 0
c-8 -7 -77 -6 -85 2 -3 3 16 5 43 5 27 0 45 -3 42 -7z m891 0 c-16 -2 -40 -2
-55 0 -16 2 -3 4 27 4 30 0 43 -2 28 -4z m200 0 c-21 -2 -55 -2 -75 0 -21 2
-4 4 37 4 41 0 58 -2 38 -4z m544 -10 c7 -28 -2 -43 -25 -42 -21 0 -21 1 -2 9
14 6 2 9 -42 9 -56 1 -63 3 -63 21 0 18 7 20 64 20 52 0 64 -3 68 -17z m1281
10 c-7 -2 -19 -2 -25 0 -7 3 -2 5 12 5 14 0 19 -2 13 -5z m-2918 -23 c4 -6
-12 -9 -42 -9 -47 2 -47 2 -13 9 19 4 38 8 42 9 4 0 10 -3 13 -9z m-142 -7
c-13 -2 -33 -2 -45 0 -13 2 -3 4 22 4 25 0 35 -2 23 -4z m1200 0 c-51 -2 -135
-2 -185 0 -51 1 -10 3 92 3 102 0 143 -2 93 -3z m-1310 -20 c-7 -2 -19 -2 -25
0 -7 3 -2 5 12 5 14 0 19 -2 13 -5z m80 0 c-7 -2 -19 -2 -25 0 -7 3 -2 5 12 5
14 0 19 -2 13 -5z m162 -3 c-16 -6 -12 -9 20 -12 22 -3 -3 -5 -55 -4 -52 0
-71 1 -42 3 28 2 52 8 52 14 0 5 10 9 23 8 21 0 21 -1 2 -9z m863 3 c-10 -2
-26 -2 -35 0 -10 3 -2 5 17 5 19 0 27 -2 18 -5z m186 -8 c4 -12 -3 -15 -37
-14 -23 1 -34 3 -24 6 9 2 17 9 17 14 0 15 37 10 44 -6z m433 0 c0 -13 -26
-15 -181 -14 -100 1 -169 4 -153 6 15 2 27 9 27 14 0 5 65 9 153 9 130 0 154
-2 154 -15z m76 8 c-7 -2 -21 -2 -30 0 -10 3 -4 5 12 5 17 0 24 -2 18 -5z
m164 1 c-3 -3 -12 -4 -19 -1 -8 3 -5 6 6 6 11 1 17 -2 13 -5z m1086 -1 c-7 -2
-21 -2 -30 0 -10 3 -4 5 12 5 17 0 24 -2 18 -5z m-3050 -20 c-7 -2 -21 -2 -30
0 -10 3 -4 5 12 5 17 0 24 -2 18 -5z m80 0 c-7 -2 -21 -2 -30 0 -10 3 -4 5 12
5 17 0 24 -2 18 -5z m1030 0 c-13 -2 -35 -2 -50 0 -16 2 -5 4 22 4 28 0 40 -2
28 -4z m90 0 c-7 -2 -21 -2 -30 0 -10 3 -4 5 12 5 17 0 24 -2 18 -5z m154 1
c-3 -3 -12 -4 -19 -1 -8 3 -5 6 6 6 11 1 17 -2 13 -5z m441 -1 c-10 -2 -28 -2
-40 0 -13 2 -5 4 17 4 22 1 32 -1 23 -4z m100 0 c-10 -2 -26 -2 -35 0 -10 3
-2 5 17 5 19 0 27 -2 18 -5z m70 0 c-10 -2 -26 -2 -35 0 -10 3 -2 5 17 5 19 0
27 -2 18 -5z m1139 0 c-20 -2 -52 -2 -70 0 -17 2 0 4 38 4 39 0 53 -2 32 -4z
m-2757 -23 c0 -6 -28 -10 -65 -10 -37 0 -65 4 -65 10 0 6 28 10 65 10 37 0 65
-4 65 -10z m85 0 c4 -6 -7 -10 -25 -10 -18 0 -29 4 -25 10 3 6 15 10 25 10 10
0 22 -4 25 -10z m821 -3 c4 -4 -5 -7 -20 -7 -15 0 -25 4 -22 9 7 10 31 9 42
-2z m84 3 c0 -5 -11 -10 -25 -10 -14 0 -25 5 -25 10 0 6 11 10 25 10 14 0 25
-4 25 -10z m75 0 c3 -5 -3 -10 -15 -10 -12 0 -18 5 -15 10 3 6 10 10 15 10 5
0 12 -4 15 -10z m110 0 c4 -6 -8 -10 -29 -10 -20 0 -36 5 -36 10 0 6 13 10 29
10 17 0 33 -4 36 -10z m151 -2 c3 -4 -18 -8 -46 -8 -33 0 -49 4 -45 10 8 12
84 10 91 -2z m84 2 c0 -5 -7 -10 -16 -10 -8 0 -12 5 -9 10 3 6 10 10 16 10 5
0 9 -4 9 -10z m90 0 c0 -5 -9 -10 -20 -10 -11 0 -20 5 -20 10 0 6 9 10 20 10
11 0 20 -4 20 -10z m-283 -6 c-3 -3 -12 -4 -19 -1 -8 3 -5 6 6 6 11 1 17 -2
13 -5z m-1494 -21 c-13 -2 -33 -2 -45 0 -13 2 -3 4 22 4 25 0 35 -2 23 -4z
m245 0 c-32 -2 -58 -8 -58 -14 0 -6 22 -8 58 -4 31 3 73 1 92 -4 l35 -9 -30
-2 c-30 -2 -30 -2 -5 -11 17 -6 5 -7 -35 -3 -83 9 -114 9 -160 1 -28 -5 -33
-4 -15 2 19 7 9 9 -42 10 -38 1 -68 5 -68 9 0 5 29 7 65 4 41 -2 65 0 65 6 0
6 -12 13 -27 15 -16 2 19 4 77 4 58 -1 79 -2 48 -4z m110 0 c-10 -2 -26 -2
-35 0 -10 3 -2 5 17 5 19 0 27 -2 18 -5z m685 0 c-7 -2 -19 -2 -25 0 -7 3 -2
5 12 5 14 0 19 -2 13 -5z m135 0 c-10 -2 -28 -2 -40 0 -13 2 -5 4 17 4 22 1
32 -1 23 -4z m85 0 c-13 -2 -33 -2 -45 0 -13 2 -3 4 22 4 25 0 35 -2 23 -4z
m324 0 c-20 -3 -27 -9 -23 -19 7 -18 -21 -31 -36 -16 -8 8 -6 13 8 19 11 5
-31 10 -106 13 l-125 6 155 0 c85 1 142 -1 127 -3z m96 0 c-7 -2 -21 -2 -30 0
-10 3 -4 5 12 5 17 0 24 -2 18 -5z m90 0 c-7 -2 -21 -2 -30 0 -10 3 -4 5 12 5
17 0 24 -2 18 -5z m1200 0 c-13 -2 -35 -2 -50 0 -16 2 -5 4 22 4 28 0 40 -2
28 -4z m54 1 c-3 -3 -12 -4 -19 -1 -8 3 -5 6 6 6 11 1 17 -2 13 -5z m-1968
-23 c12 -8 9 -11 -11 -16 -29 -8 -52 1 -43 16 8 12 36 11 54 0z m205 1 c7 -12
-7 -28 -24 -27 -24 0 -25 35 -1 35 11 0 22 -4 25 -8z m216 -8 c0 -15 -33 -11
-38 4 -2 6 6 10 17 9 12 -1 21 -7 21 -13z m1499 0 c2 -2 -14 -4 -37 -4 -23 0
-42 4 -42 9 0 9 69 4 79 -5z m-1851 -1 c-10 -2 -26 -2 -35 0 -10 3 -2 5 17 5
19 0 27 -2 18 -5z m1585 0 c-7 -2 -19 -2 -25 0 -7 3 -2 5 12 5 14 0 19 -2 13
-5z m-1615 -40 c-21 -2 -57 -2 -80 0 -24 2 -7 4 37 4 44 0 63 -2 43 -4z m185
0 c-13 -2 -33 -2 -45 0 -13 2 -3 4 22 4 25 0 35 -2 23 -4z m200 0 c-23 -2 -64
-2 -90 0 -26 2 -7 3 42 3 50 0 71 -1 48 -3z m120 0 c-7 -2 -21 -2 -30 0 -10 3
-4 5 12 5 17 0 24 -2 18 -5z m84 1 c-3 -3 -12 -4 -19 -1 -8 3 -5 6 6 6 11 1
17 -2 13 -5z m1160 0 c-3 -3 -12 -4 -19 -1 -8 3 -5 6 6 6 11 1 17 -2 13 -5z
m-1594 -21 c-7 -2 -19 -2 -25 0 -7 3 -2 5 12 5 14 0 19 -2 13 -5z m92 -3 c-3
-5 -10 -10 -16 -10 -5 0 -9 5 -9 10 0 6 7 10 16 10 8 0 12 -4 9 -10z m182 3
c-9 -8 -47 -11 -47 -4 0 5 11 9 25 9 14 0 24 -2 22 -5z m163 -3 c0 -5 -4 -10
-9 -10 -6 0 -13 5 -16 10 -3 6 1 10 9 10 9 0 16 -4 16 -10z m1160 6 c0 -2 -7
-6 -15 -10 -8 -3 -15 -1 -15 4 0 6 7 10 15 10 8 0 15 -2 15 -4z m-2877 -33
c-7 -2 -19 -2 -25 0 -7 3 -2 5 12 5 14 0 19 -2 13 -5z m1200 0 c-7 -2 -19 -2
-25 0 -7 3 -2 5 12 5 14 0 19 -2 13 -5z m170 0 c-7 -2 -19 -2 -25 0 -7 3 -2 5
12 5 14 0 19 -2 13 -5z m180 0 c-7 -2 -21 -2 -30 0 -10 3 -4 5 12 5 17 0 24
-2 18 -5z m160 0 c-7 -2 -19 -2 -25 0 -7 3 -2 5 12 5 14 0 19 -2 13 -5z m1080
0 c-7 -2 -19 -2 -25 0 -7 3 -2 5 12 5 14 0 19 -2 13 -5z m90 0 c-7 -2 -19 -2
-25 0 -7 3 -2 5 12 5 14 0 19 -2 13 -5z m120 0 c-7 -2 -19 -2 -25 0 -7 3 -2 5
12 5 14 0 19 -2 13 -5z m-643 -23 c12 -8 11 -10 -7 -10 -13 0 -23 5 -23 10 0
13 11 13 30 0z m700 1 c0 -12 -29 -23 -41 -15 -5 3 -7 10 -4 15 8 12 45 12 45
0z m-1777 -8 c-7 -2 -19 -2 -25 0 -7 3 -2 5 12 5 14 0 19 -2 13 -5z m1563 -36
c4 -4 -5 -7 -20 -7 -15 0 -25 4 -22 9 7 10 31 9 42 -2z m-2803 -4 c-7 -2 -19
-2 -25 0 -7 3 -2 5 12 5 14 0 19 -2 13 -5z m680 0 c-7 -2 -19 -2 -25 0 -7 3
-2 5 12 5 14 0 19 -2 13 -5z m864 1 c-3 -3 -12 -4 -19 -1 -8 3 -5 6 6 6 11 1
17 -2 13 -5z m-1544 -21 c-7 -2 -19 -2 -25 0 -7 3 -2 5 12 5 14 0 19 -2 13 -5z
m680 0 c-7 -2 -19 -2 -25 0 -7 3 -2 5 12 5 14 0 19 -2 13 -5z m864 1 c-3 -3
-12 -4 -19 -1 -8 3 -5 6 6 6 11 1 17 -2 13 -5z m1256 -1 c-7 -2 -21 -2 -30 0
-10 3 -4 5 12 5 17 0 24 -2 18 -5z m-2800 -30 c-7 -2 -19 -2 -25 0 -7 3 -2 5
12 5 14 0 19 -2 13 -5z m2800 0 c-7 -2 -21 -2 -30 0 -10 3 -4 5 12 5 17 0 24
-2 18 -5z m115 0 c-16 -2 -40 -2 -55 0 -16 2 -3 4 27 4 30 0 43 -2 28 -4z
m-350 -20 c-10 -2 -18 -9 -18 -14 0 -5 -8 -9 -17 -10 -14 0 -13 -2 5 -9 34
-14 26 -20 -28 -20 -46 0 -50 2 -50 24 0 18 -7 26 -22 29 -13 2 15 4 62 4 47
1 77 -1 68 -4z m225 0 c-7 -2 -19 -2 -25 0 -7 3 -2 5 12 5 14 0 19 -2 13 -5z
m130 0 c-7 -2 -21 -2 -30 0 -10 3 -4 5 12 5 17 0 24 -2 18 -5z m-2830 -9 c12
-12 -6 -34 -27 -33 -20 0 -20 1 -1 9 18 8 18 9 2 9 -10 1 -15 6 -12 11 7 11
28 13 38 4z m2702 -8 c11 -2 -10 -4 -47 -5 -38 0 -68 2 -68 7 0 7 67 6 115 -2z
m-2148 -2 c-3 -3 -12 -4 -19 -1 -8 3 -5 6 6 6 11 1 17 -2 13 -5z m1976 -1 c-7
-2 -21 -2 -30 0 -10 3 -4 5 12 5 17 0 24 -2 18 -5z m290 0 c-13 -2 -35 -2 -50
0 -16 2 -5 4 22 4 28 0 40 -2 28 -4z m-283 -23 c0 -5 -15 -10 -32 -10 -25 0
-29 3 -18 10 20 13 50 13 50 0z m77 4 c-3 -3 -12 -4 -19 -1 -8 3 -5 6 6 6 11
1 17 -2 13 -5z m-77 -33 c0 -8 -159 -3 -169 5 -2 2 35 4 82 4 48 0 87 -4 87
-9z m-2537 -28 c-7 -2 -19 -2 -25 0 -7 3 -2 5 12 5 14 0 19 -2 13 -5z m2495 0
c-27 -2 -69 -2 -95 0 -27 2 -5 3 47 3 52 0 74 -1 48 -3z m335 0 c-7 -2 -19 -2
-25 0 -7 3 -2 5 12 5 14 0 19 -2 13 -5z m-2836 -19 c-3 -3 -12 -4 -19 -1 -8 3
-5 6 6 6 11 1 17 -2 13 -5z m2406 -1 c-7 -2 -19 -2 -25 0 -7 3 -2 5 12 5 14 0
19 -2 13 -5z m120 0 c-13 -2 -35 -2 -50 0 -16 2 -5 4 22 4 28 0 40 -2 28 -4z
m310 0 c-7 -2 -19 -2 -25 0 -7 3 -2 5 12 5 14 0 19 -2 13 -5z m-440 -20 c-13
-2 -35 -2 -50 0 -16 2 -5 4 22 4 28 0 40 -2 28 -4z m130 0 c-13 -2 -35 -2 -50
0 -16 2 -5 4 22 4 28 0 40 -2 28 -4z m-2473 -23 c0 -5 -6 -10 -14 -10 -8 0
-18 5 -21 10 -3 6 3 10 14 10 12 0 21 -4 21 -10z m2360 0 c0 -5 -21 -10 -46
-10 -27 0 -43 4 -39 10 3 6 24 10 46 10 21 0 39 -4 39 -10z m130 0 c0 -6 -15
-10 -34 -8 -19 1 -32 6 -30 10 8 12 64 10 64 -2z m-17 -27 c-13 -2 -33 -2 -45
0 -13 2 -3 4 22 4 25 0 35 -2 23 -4z m140 0 c-13 -2 -35 -2 -50 0 -16 2 -5 4
22 4 28 0 40 -2 28 -4z m80 0 c-7 -2 -19 -2 -25 0 -7 3 -2 5 12 5 14 0 19 -2
13 -5z m-203 -23 c0 -5 -19 -10 -42 -9 -37 1 -39 2 -18 9 36 12 60 12 60 0z
m-177 -7 c-7 -2 -19 -2 -25 0 -7 3 -2 5 12 5 14 0 19 -2 13 -5z m0 -20 c-7 -2
-19 -2 -25 0 -7 3 -2 5 12 5 14 0 19 -2 13 -5z m0 -20 c-7 -2 -19 -2 -25 0 -7
3 -2 5 12 5 14 0 19 -2 13 -5z m124 1 c-3 -3 -12 -4 -19 -1 -8 3 -5 6 6 6 11
1 17 -2 13 -5z m176 -1 c-7 -2 -19 -2 -25 0 -7 3 -2 5 12 5 14 0 19 -2 13 -5z
m-2573 -23 c0 -5 -9 -10 -20 -10 -11 0 -20 5 -20 10 0 6 9 10 20 10 11 0 20
-4 20 -10z m2143 -27 c-7 -2 -19 -2 -25 0 -7 3 -2 5 12 5 14 0 19 -2 13 -5z
m130 0 c-7 -2 -19 -2 -25 0 -7 3 -2 5 12 5 14 0 19 -2 13 -5z m254 1 c-3 -3
-12 -4 -19 -1 -8 3 -5 6 6 6 11 1 17 -2 13 -5z m-2487 -26 c0 -4 -9 -8 -21 -8
-11 0 -18 4 -15 8 3 5 12 9 21 9 8 0 15 -4 15 -9z m2133 -65 c-13 -2 -33 -2
-45 0 -13 2 -3 4 22 4 25 0 35 -2 23 -4z m30 -30 c-18 -2 -48 -2 -65 0 -18 2
-4 4 32 4 36 0 50 -2 33 -4z m-1278 -23 c-2 -3 -18 -7 -35 -8 -20 -2 -29 1
-25 8 3 6 19 9 35 8 16 -1 27 -5 25 -8z m50 0 c3 -5 -1 -10 -9 -10 -8 0 -18 5
-21 10 -3 6 1 10 9 10 8 0 18 -4 21 -10z m655 0 c0 -5 -6 -10 -14 -10 -8 0
-18 5 -21 10 -3 6 3 10 14 10 12 0 21 -4 21 -10z"/>
<path d="M2250 3580 c-12 -8 -11 -10 8 -10 12 0 22 5 22 10 0 13 -11 13 -30 0z"/>
<path d="M2248 3503 c7 -3 16 -2 19 1 4 3 -2 6 -13 5 -11 0 -14 -3 -6 -6z"/>
<path d="M2163 3433 c9 -2 23 -2 30 0 6 3 -1 5 -18 5 -16 0 -22 -2 -12 -5z"/>
<path d="M1873 3403 c15 -2 37 -2 50 0 12 2 0 4 -28 4 -27 0 -38 -2 -22 -4z"/>
<path d="M2163 3403 c9 -2 23 -2 30 0 6 3 -1 5 -18 5 -16 0 -22 -2 -12 -5z"/>
<path d="M1878 3363 c12 -2 32 -2 45 0 12 2 2 4 -23 4 -25 0 -35 -2 -22 -4z"/>
<path d="M2763 3003 c9 -2 23 -2 30 0 6 3 -1 5 -18 5 -16 0 -22 -2 -12 -5z"/>
<path d="M2907 2743 c18 -2 50 -2 70 0 21 2 7 4 -32 4 -38 0 -55 -2 -38 -4z"/>
<path d="M3063 2743 c9 -2 23 -2 30 0 6 3 -1 5 -18 5 -16 0 -22 -2 -12 -5z"/>
<path d="M1510 2720 c0 -5 9 -10 20 -10 11 0 20 5 20 10 0 6 -9 10 -20 10 -11
0 -20 -4 -20 -10z"/>
<path d="M2930 2719 c0 -5 10 -9 22 -9 12 0 18 3 14 7 -10 11 -36 12 -36 2z"/>
<path d="M1598 2483 c6 -2 18 -2 25 0 6 3 1 5 -13 5 -14 0 -19 -2 -12 -5z"/>
<path d="M2428 2483 c7 -3 16 -2 19 1 4 3 -2 6 -13 5 -11 0 -14 -3 -6 -6z"/>
<path d="M1568 2463 c12 -2 32 -2 45 0 12 2 2 4 -23 4 -25 0 -35 -2 -22 -4z"/>
<path d="M2403 2463 c20 -2 54 -2 75 0 20 2 3 4 -38 4 -41 0 -58 -2 -37 -4z"/>
<path d="M2778 2463 c12 -2 32 -2 45 0 12 2 2 4 -23 4 -25 0 -35 -2 -22 -4z"/>
<path d="M2763 2413 c9 -2 23 -2 30 0 6 3 -1 5 -18 5 -16 0 -22 -2 -12 -5z"/>
<path d="M2808 2383 c7 -3 16 -2 19 1 4 3 -2 6 -13 5 -11 0 -14 -3 -6 -6z"/>
<path d="M2808 2363 c7 -3 16 -2 19 1 4 3 -2 6 -13 5 -11 0 -14 -3 -6 -6z"/>
<path d="M2808 2293 c6 -2 18 -2 25 0 6 3 1 5 -13 5 -14 0 -19 -2 -12 -5z"/>
<path d="M2763 2223 c9 -2 23 -2 30 0 6 3 -1 5 -18 5 -16 0 -22 -2 -12 -5z"/>
<path d="M1034 2203 c8 -8 127 -5 135 3 2 2 -29 4 -69 4 -40 0 -70 -3 -66 -7z"/>
<path d="M2763 2203 c9 -2 23 -2 30 0 6 3 -1 5 -18 5 -16 0 -22 -2 -12 -5z"/>
<path d="M1098 2153 c12 -2 32 -2 45 0 12 2 2 4 -23 4 -25 0 -35 -2 -22 -4z"/>
<path d="M1043 2103 c9 -2 23 -2 30 0 6 3 -1 5 -18 5 -16 0 -22 -2 -12 -5z"/>
<path d="M1648 2103 c7 -3 16 -2 19 1 4 3 -2 6 -13 5 -11 0 -14 -3 -6 -6z"/>
<path d="M3763 2103 c15 -2 37 -2 50 0 12 2 0 4 -28 4 -27 0 -38 -2 -22 -4z"/>
<path d="M3923 2103 c9 -2 23 -2 30 0 6 3 -1 5 -18 5 -16 0 -22 -2 -12 -5z"/>
<path d="M1648 2083 c7 -3 16 -2 19 1 4 3 -2 6 -13 5 -11 0 -14 -3 -6 -6z"/>
<path d="M1298 1963 c6 -2 18 -2 25 0 6 3 1 5 -13 5 -14 0 -19 -2 -12 -5z"/>
<path d="M1728 1963 c6 -2 18 -2 25 0 6 3 1 5 -13 5 -14 0 -19 -2 -12 -5z"/>
<path d="M1298 1933 c6 -2 18 -2 25 0 6 3 1 5 -13 5 -14 0 -19 -2 -12 -5z"/>
<path d="M1813 1933 c9 -2 23 -2 30 0 6 3 -1 5 -18 5 -16 0 -22 -2 -12 -5z"/>
<path d="M1293 1913 c9 -2 23 -2 30 0 6 3 -1 5 -18 5 -16 0 -22 -2 -12 -5z"/>
<path d="M1797 1913 c18 -2 50 -2 70 0 21 2 7 4 -32 4 -38 0 -55 -2 -38 -4z"/>
<path d="M1828 1893 c12 -2 32 -2 45 0 12 2 2 4 -23 4 -25 0 -35 -2 -22 -4z"/>
<path d="M1080 1870 c0 -5 18 -10 39 -10 22 0 43 5 46 10 4 6 -12 10 -39 10
-25 0 -46 -4 -46 -10z"/>
<path d="M1940 1873 c0 -5 18 -9 40 -10 22 -2 40 2 40 7 0 6 -18 10 -40 10
-22 0 -40 -3 -40 -7z"/>
<path d="M1188 1843 c23 -2 61 -2 85 0 23 2 4 4 -43 4 -47 0 -66 -2 -42 -4z"/>
<path d="M1483 1843 c15 -2 39 -2 55 0 15 2 2 4 -28 4 -30 0 -43 -2 -27 -4z"/>
<path d="M1205 1820 c-4 -6 5 -10 20 -10 15 0 24 4 20 10 -3 6 -12 10 -20 10
-8 0 -17 -4 -20 -10z"/>
<path d="M1298 1793 c6 -2 18 -2 25 0 6 3 1 5 -13 5 -14 0 -19 -2 -12 -5z"/>
<path d="M1278 1773 c12 -2 30 -2 40 0 9 3 -1 5 -23 4 -22 0 -30 -2 -17 -4z"/>
<path d="M1253 1753 c9 -2 25 -2 35 0 9 3 1 5 -18 5 -19 0 -27 -2 -17 -5z"/>
<path d="M904 1488 c-3 -4 18 -8 47 -8 29 0 49 3 45 7 -10 11 -86 12 -92 1z"/>
<path d="M1185 1490 c-27 -7 -25 -8 18 -9 30 -1 46 3 42 9 -7 11 -16 11 -60 0z"/>
<path d="M1295 1490 c-4 -6 3 -10 14 -10 25 0 27 6 6 13 -8 4 -17 2 -20 -3z"/>
<path d="M1043 1483 c9 -2 23 -2 30 0 6 3 -1 5 -18 5 -16 0 -22 -2 -12 -5z"/>
<path d="M900 1460 c0 -5 18 -10 39 -10 22 0 43 5 46 10 4 6 -12 10 -39 10
-25 0 -46 -4 -46 -10z"/>
<path d="M1030 1466 c0 -2 13 -6 29 -8 17 -2 28 -1 25 4 -5 8 -54 12 -54 4z"/>
<path d="M1183 1463 c15 -2 37 -2 50 0 12 2 0 4 -28 4 -27 0 -38 -2 -22 -4z"/>
<path d="M1298 1463 c6 -2 18 -2 25 0 6 3 1 5 -13 5 -14 0 -19 -2 -12 -5z"/>
<path d="M1318 1393 c12 -2 32 -2 45 0 12 2 2 4 -23 4 -25 0 -35 -2 -22 -4z"/>
<path d="M1110 1370 l-35 -7 43 -2 c27 0 41 3 37 9 -3 6 -7 9 -8 9 -1 -1 -18
-5 -37 -9z"/>
<path d="M1173 1303 c9 -2 23 -2 30 0 6 3 -1 5 -18 5 -16 0 -22 -2 -12 -5z"/>
<path d="M1173 1273 c9 -2 23 -2 30 0 6 3 -1 5 -18 5 -16 0 -22 -2 -12 -5z"/>
<path d="M1178 1253 c7 -3 16 -2 19 1 4 3 -2 6 -13 5 -11 0 -14 -3 -6 -6z"/>
<path d="M1148 1183 c17 -2 47 -2 65 0 17 2 3 4 -33 4 -36 0 -50 -2 -32 -4z"/>
<path d="M3018 1183 c6 -2 18 -2 25 0 6 3 1 5 -13 5 -14 0 -19 -2 -12 -5z"/>
<path d="M2938 1153 c7 -3 16 -2 19 1 4 3 -2 6 -13 5 -11 0 -14 -3 -6 -6z"/>
<path d="M985 1130 c3 -5 26 -10 51 -10 24 0 44 5 44 10 0 6 -23 10 -51 10
-31 0 -48 -4 -44 -10z"/>
<path d="M2848 1103 c6 -2 18 -2 25 0 6 3 1 5 -13 5 -14 0 -19 -2 -12 -5z"/>
<path d="M2948 1103 c12 -2 32 -2 45 0 12 2 2 4 -23 4 -25 0 -35 -2 -22 -4z"/>
<path d="M2948 1083 c12 -2 32 -2 45 0 12 2 2 4 -23 4 -25 0 -35 -2 -22 -4z"/>
<path d="M2850 1005 l35 -13 -45 -2 c-25 -1 -39 -4 -32 -7 26 -10 122 8 122
23 0 11 -14 14 -57 13 l-58 -1 35 -13z"/>
<path d="M1558 913 c6 -2 18 -2 25 0 6 3 1 5 -13 5 -14 0 -19 -2 -12 -5z"/>
<path d="M2878 913 c7 -3 16 -2 19 1 4 3 -2 6 -13 5 -11 0 -14 -3 -6 -6z"/>
<path d="M2083 893 c15 -2 37 -2 50 0 12 2 0 4 -28 4 -27 0 -38 -2 -22 -4z"/>
<path d="M1168 823 c6 -2 18 -2 25 0 6 3 1 5 -13 5 -14 0 -19 -2 -12 -5z"/>
<path d="M2710 3459 c0 -5 10 -9 22 -9 12 0 18 3 14 7 -10 11 -36 12 -36 2z"/>
<path d="M2880 2030 c0 -5 9 -10 20 -10 11 0 20 5 20 10 0 6 -9 10 -20 10 -11
0 -20 -4 -20 -10z"/>
<path d="M3423 1793 c15 -2 37 -2 50 0 12 2 0 4 -28 4 -27 0 -38 -2 -22 -4z"/>
<path d="M3513 1793 c9 -2 25 -2 35 0 9 3 1 5 -18 5 -19 0 -27 -2 -17 -5z"/>
<path d="M3427 1773 c18 -2 50 -2 70 0 21 2 7 4 -32 4 -38 0 -55 -2 -38 -4z"/>
<path d="M2508 1698 c5 -5 16 -8 23 -6 8 3 3 7 -10 11 -17 4 -21 3 -13 -5z"/>
<path d="M2208 1653 c6 -2 18 -2 25 0 6 3 1 5 -13 5 -14 0 -19 -2 -12 -5z"/>
<path d="M1003 4593 c15 -2 37 -2 50 0 12 2 0 4 -28 4 -27 0 -38 -2 -22 -4z"/>
<path d="M1088 4593 c6 -2 18 -2 25 0 6 3 1 5 -13 5 -14 0 -19 -2 -12 -5z"/>
<path d="M1193 4593 c15 -2 37 -2 50 0 12 2 0 4 -28 4 -27 0 -38 -2 -22 -4z"/>
<path d="M990 4572 c0 -4 9 -8 20 -8 11 0 20 4 20 8 0 4 -9 8 -20 8 -11 0 -20
-4 -20 -8z"/>
<path d="M3583 4573 c9 -2 25 -2 35 0 9 3 1 5 -18 5 -19 0 -27 -2 -17 -5z"/>
<path d="M1058 4503 c7 -3 16 -2 19 1 4 3 -2 6 -13 5 -11 0 -14 -3 -6 -6z"/>
<path d="M3663 4453 c9 -2 23 -2 30 0 6 3 -1 5 -18 5 -16 0 -22 -2 -12 -5z"/>
<path d="M883 4413 c15 -2 37 -2 50 0 12 2 0 4 -28 4 -27 0 -38 -2 -22 -4z"/>
<path d="M1048 4383 c6 -2 18 -2 25 0 6 3 1 5 -13 5 -14 0 -19 -2 -12 -5z"/>
<path d="M863 4333 c9 -2 23 -2 30 0 6 3 -1 5 -18 5 -16 0 -22 -2 -12 -5z"/>
<path d="M3848 4313 c7 -3 16 -2 19 1 4 3 -2 6 -13 5 -11 0 -14 -3 -6 -6z"/>
<path d="M693 4238 c-2 -5 14 -8 36 -8 23 0 41 4 41 9 0 11 -70 10 -77 -1z"/>
<path d="M1216 4238 c3 -4 9 -8 15 -8 5 0 9 4 9 8 0 5 -7 9 -15 9 -8 0 -12 -4
-9 -9z"/>
<path d="M828 4213 c6 -2 18 -2 25 0 6 3 1 5 -13 5 -14 0 -19 -2 -12 -5z"/>
<path d="M1218 4213 c6 -2 18 -2 25 0 6 3 1 5 -13 5 -14 0 -19 -2 -12 -5z"/>
<path d="M1133 4193 c9 -2 23 -2 30 0 6 3 -1 5 -18 5 -16 0 -22 -2 -12 -5z"/>
<path d="M888 4173 c12 -2 32 -2 45 0 12 2 2 4 -23 4 -25 0 -35 -2 -22 -4z"/>
<path d="M1143 4173 c15 -2 39 -2 55 0 15 2 2 4 -28 4 -30 0 -43 -2 -27 -4z"/>
<path d="M1093 4143 c9 -2 25 -2 35 0 9 3 1 5 -18 5 -19 0 -27 -2 -17 -5z"/>
<path d="M3848 4123 c7 -3 16 -2 19 1 4 3 -2 6 -13 5 -11 0 -14 -3 -6 -6z"/>
<path d="M783 4093 c9 -2 23 -2 30 0 6 3 -1 5 -18 5 -16 0 -22 -2 -12 -5z"/>
<path d="M3838 4093 c6 -2 18 -2 25 0 6 3 1 5 -13 5 -14 0 -19 -2 -12 -5z"/>
<path d="M3798 4073 c6 -2 18 -2 25 0 6 3 1 5 -13 5 -14 0 -19 -2 -12 -5z"/>
<path d="M733 3973 c26 -2 67 -2 90 0 23 2 2 3 -48 3 -49 0 -68 -1 -42 -3z"/>
<path d="M653 3933 c9 -2 23 -2 30 0 6 3 -1 5 -18 5 -16 0 -22 -2 -12 -5z"/>
<path d="M833 3933 c9 -2 23 -2 30 0 6 3 -1 5 -18 5 -16 0 -22 -2 -12 -5z"/>
<path d="M828 3913 c6 -2 18 -2 25 0 6 3 1 5 -13 5 -14 0 -19 -2 -12 -5z"/>
<path d="M658 3903 c6 -2 18 -2 25 0 6 3 1 5 -13 5 -14 0 -19 -2 -12 -5z"/>
<path d="M658 3883 c12 -2 32 -2 45 0 12 2 2 4 -23 4 -25 0 -35 -2 -22 -4z"/>
<path d="M542 3862 c-13 -4 -22 -11 -20 -17 4 -12 62 -15 80 -4 9 6 3 9 -17
10 -26 0 -27 2 -10 9 24 10 1 11 -33 2z"/>
<path d="M658 3843 c6 -2 18 -2 25 0 6 3 1 5 -13 5 -14 0 -19 -2 -12 -5z"/>
<path d="M783 3813 c15 -2 39 -2 55 0 15 2 2 4 -28 4 -30 0 -43 -2 -27 -4z"/>
<path d="M558 3763 c34 -2 90 -2 125 0 34 2 6 3 -63 3 -69 0 -97 -1 -62 -3z"/>
<path d="M3498 3763 c7 -3 16 -2 19 1 4 3 -2 6 -13 5 -11 0 -14 -3 -6 -6z"/>
<path d="M3583 3763 c9 -2 23 -2 30 0 6 3 -1 5 -18 5 -16 0 -22 -2 -12 -5z"/>
<path d="M3530 3699 c-38 -4 -19 -6 65 -7 122 0 144 4 45 10 -30 2 -80 0 -110
-3z"/>
<path d="M3486 3669 c6 -11 171 -5 183 6 2 3 -39 5 -93 5 -68 0 -95 -3 -90
-11z"/>
<path d="M568 3573 c7 -3 16 -2 19 1 4 3 -2 6 -13 5 -11 0 -14 -3 -6 -6z"/>
<path d="M443 3553 c9 -2 23 -2 30 0 6 3 -1 5 -18 5 -16 0 -22 -2 -12 -5z"/>
<path d="M443 3523 c9 -2 23 -2 30 0 6 3 -1 5 -18 5 -16 0 -22 -2 -12 -5z"/>
<path d="M350 3460 c0 -6 29 -10 68 -9 49 1 60 3 42 9 -36 12 -110 12 -110 0z"/>
<path d="M488 3433 c7 -3 16 -2 19 1 4 3 -2 6 -13 5 -11 0 -14 -3 -6 -6z"/>
<path d="M488 3403 c7 -3 16 -2 19 1 4 3 -2 6 -13 5 -11 0 -14 -3 -6 -6z"/>
<path d="M443 3313 c9 -2 23 -2 30 0 6 3 -1 5 -18 5 -16 0 -22 -2 -12 -5z"/>
<path d="M323 3243 c15 -2 37 -2 50 0 12 2 0 4 -28 4 -27 0 -38 -2 -22 -4z"/>
<path d="M413 3153 c9 -2 25 -2 35 0 9 3 1 5 -18 5 -19 0 -27 -2 -17 -5z"/>
<path d="M313 3073 c9 -2 23 -2 30 0 6 3 -1 5 -18 5 -16 0 -22 -2 -12 -5z"/>
<path d="M278 2743 c6 -2 18 -2 25 0 6 3 1 5 -13 5 -14 0 -19 -2 -12 -5z"/>
<path d="M180 2720 c0 -5 7 -10 16 -10 8 0 12 5 9 10 -3 6 -10 10 -16 10 -5 0
-9 -4 -9 -10z"/>
<path d="M177 2599 c8 -8 16 -8 30 0 16 9 14 10 -11 11 -22 0 -27 -3 -19 -11z"/>
</g>
</svg>
